<svg xmlns="http://www.w3.org/2000/svg" width="16" height="15" viewBox="0 0 16 15">
    <g fill="#FFF" fill-rule="nonzero">
        <path d="M9.874 5.219v.038h.004c.016.088.06.173.134.242a.508.508 0 0 0 .425.124h2.665a.51.51 0 0 0 .425-.124.427.427 0 0 0 0-.636.504.504 0 0 0-.343-.132H11.52l1.976-1.83c.01-.008.02-.014.03-.023a.427.427 0 0 0 0-.635.513.513 0 0 0-.686 0c-.01.009-.017.02-.026.03l-1.978 1.832V2.599a.426.426 0 0 0-.138-.355.512.512 0 0 0-.686 0 .427.427 0 0 0-.138.355v2.544a.386.386 0 0 0 0 .076zM15.188 12.71l.047-.044-.044.04z"/>
        <path d="M15.405 10.201l-3.506-.91-.02.019-1.31 1.213-.018.021c-.543.503-1.887-.445-3.695-2.12C5.05 6.747 4.026 5.503 4.568 5l.022-.017L5.9 3.77l.02-.018L4.939.503a1.954 1.954 0 0 0-2.617 0L2.346.48.359 2.32c-1.085 1.005.309 5.136 3.925 8.486 3.616 3.35 8.074 4.643 9.159 3.637l1.964-1.82c.72-.67.72-1.753-.002-2.423zm-.654 1.819l-1.963 1.818c-.723.67-4.595-.621-7.85-3.637C1.684 7.185.29 3.597 1.013 2.927l1.962-1.818-.008.007a.977.977 0 0 1 1.309 0l.662 2.329-1.35 1.251c-.725.671.445 2.323 2.614 4.334 2.17 2.01 3.953 3.093 4.677 2.422l1.35-1.251 2.514.614a.813.813 0 0 1 0 1.212l.008-.007z"/>
    </g>
</svg>
