<svg xmlns="http://www.w3.org/2000/svg" width="21" height="21" viewBox="0 0 21 21">
    <g fill="#000" fill-rule="nonzero">
        <path d="M13.002 7.417v.054h.005a.635.635 0 0 0 .736.52h3.51a.638.638 0 1 0 .108-1.267h-2.19l2.601-2.602c.013-.01.028-.02.04-.032a.639.639 0 1 0-.903-.903c-.013.013-.023.029-.035.043L14.27 5.833v-2.14a.638.638 0 0 0-1.085-.506.633.633 0 0 0-.182.507v3.615a.591.591 0 0 0 0 .108zM20 18.063l.063-.063-.058.058z"/>
        <path d="M20.286 14.497l-4.616-1.293-.027.026-1.725 1.725-.024.03c-.715.715-2.485-.633-4.865-3.014C6.649 9.59 5.3 7.82 6.015 7.106l.03-.024L7.77 5.357l.027-.027L6.503.714a2.435 2.435 0 0 0-3.446 0l.032-.032L.473 3.299c-1.43 1.428.407 7.298 5.168 12.06 4.762 4.761 10.632 6.597 12.06 5.169l2.587-2.587c.95-.953.95-2.492-.002-3.444zm-.861 2.585l-2.585 2.584c-.952.952-6.051-.883-10.337-5.169C2.218 10.211.382 5.112 1.333 4.16l2.585-2.584-.01.01a1.218 1.218 0 0 1 1.723 0l.872 3.31-1.779 1.778c-.953.953.587 3.301 3.443 6.158 2.857 2.857 5.205 4.397 6.159 3.443l1.778-1.778 3.31.872a1.217 1.217 0 0 1 0 1.723l.01-.01z"/>
    </g>
</svg>
