<svg xmlns="http://www.w3.org/2000/svg" xmlns:xlink="http://www.w3.org/1999/xlink" width="94" height="22" viewBox="0 0 94 22">
    <defs>
        <path id="a" d="M.116.041h10.879V18H.115z"/>
        <path id="c" d="M.005.036h8.944V22H.005z"/>
        <path id="e" d="M0 22h95V0H0z"/>
    </defs>
    <g fill="none" fill-rule="evenodd">
        <path fill="#000" d="M23.637 4.18h3.799c1.653 0 2.927.944 2.927 3.262 0 2.507-.849 3.99-3.039 3.99h-3.687V4.18zM21 21h2.637v-6.712h3.508c4.112 0 5.855-2.722 5.855-6.98C33 2.886 30.922 1 27.793 1H21v20z"/>
        <g transform="translate(33 4)">
            <mask id="b" fill="#fff">
                <use xlink:href="#a"/>
            </mask>
            <path fill="#000" d="M10.995 7.903c0-4.497-1.405-7.862-5.046-7.862C2.202.041.116 3.682.116 8.786.116 13.972 1.755 18 5.949 18c2.342 0 3.832-1.82 4.343-2.87v-3.475l-.085.055c-.745 1.987-2.044 3.697-4.088 3.697-2.554 0-3.747-2.29-3.747-5.462h8.623V7.903zm-8.623-.552c.192-2.951 1.47-4.386 3.492-4.386 2.214 0 3.385 1.517 3.385 4.386H2.372z" mask="url(#b)"/>
        </g>
        <g transform="translate(44)">
            <mask id="d" fill="#fff">
                <use xlink:href="#c"/>
            </mask>
            <path fill="#000" d="M8.95 4.69H4.691l.13-4.654h-.925C3.402 2.684 2.09 4.886.005 5.388v2.09h2.129v9.616C2.134 19.77 2.95 22 5.767 22c1.14 0 2.602-1.003 3.075-1.589v-2.759c-.473.836-1.247 1.56-2.408 1.56-1.613 0-1.892-1.142-1.892-2.898V7.478h4.407V4.691z" mask="url(#d)"/>
        </g>
        <mask id="f" fill="#fff">
            <use xlink:href="#e"/>
        </mask>
        <path fill="#000" d="M54 21h3V0h-3zM67 9.115C67 5.715 65.445 4 62.622 4c-2.266 0-3.533 1.078-4.888 2.599v3.29c1.244-1.742 2.51-2.792 4.444-2.792 1.133 0 2.422.525 2.422 2.295 0 1.603-.889 1.935-2 2.378-2.622 1.105-5.6 1.382-5.6 5.779C57 20.313 58.4 22 60.6 22c1.689 0 3.156-1.327 3.867-3.18h.044v2.793H67V9.115zm-2.489 5.806c0 2.213-1.2 4.646-3.11 4.646-.912 0-1.912-.747-1.912-2.157 0-3.042 2.978-3.042 4.978-4.396h.044v1.907zM69 22h2.411v-9.325c0-1.922.689-5.51 3.466-5.51 2.389 0 2.712 2.289 2.712 3.984V22H80V9.595C80 6.882 78.945 4 75.845 4c-2.088 0-3.487 1.159-4.52 3.956h-.043v-3.56H69V22zM90.64 21.61H93V0h-2.494v6.393h-.044c-.89-1.842-2.56-2.568-3.852-2.568-3.25 0-5.61 2.54-5.61 9.213C81 17.394 82.09 22 86.143 22c2.249 0 3.874-1.87 4.452-4.327h.045v3.936zm-.045-9.214c0 3.238-.734 6.812-3.94 6.812-2.627 0-3.295-3.043-3.295-5.863 0-3.266.802-6.393 3.651-6.393 2.516 0 3.584 2.429 3.584 5.444zM10.491 14.717c0-1.068-.403-2.04-1.065-2.776a6.429 6.429 0 0 1-.343-.338 4.147 4.147 0 0 0-6.885 3.114l-.004 4.146h4.15a4.147 4.147 0 0 0 4.147-4.146m.084-4.658c.118.109.233.222.342.339a4.147 4.147 0 0 0 6.885-3.115l.004-4.145-4.15-.001a4.147 4.147 0 0 0-3.081 6.922m2.045 4.645c0 1.293-.39 2.495-1.058 3.495a4.13 4.13 0 0 0 2.155.603l4.146.004v-4.15c0-.798-.224-1.543-.615-2.175a6.268 6.268 0 0 1-3.572 1.111c-.402 0-.793-.037-1.174-.109.078.395.118.803.118 1.22M2.136 7.172v.173c0 .18.012.357.034.53.555-.041.797-.322.797-.322s.262.338.709.338c.447 0 .774-.338.774-.338s.272.338.708.338c.436 0 .753-.36.753-.36s.306.393.785.393a.83.83 0 0 0 .689-.369 6.843 6.843 0 0 1 .006-.64c-.023.03-.243.302-.695.302-.48 0-.785-.316-.785-.316s-.317.284-.753.284-.708-.263-.708-.263-.327.263-.774.263-.709-.263-.709-.263-.252.224-.83.25m0-1.394v.706c.578-.033.83-.325.83-.325s.262.339.709.339c.447 0 .774-.339.774-.339s.272.339.708.339c.436 0 .753-.36.753-.36s.306.392.785.392a.83.83 0 0 0 .697-.382s.028.035.076.083c.033-.192.074-.38.124-.566-.125-.072-.2-.147-.2-.147s-.218.306-.697.306c-.48 0-.785-.316-.785-.316s-.317.283-.753.283-.708-.262-.708-.262-.327.262-.774.262-.709-.262-.709-.262-.252.224-.83.249M8.438 3.8a4.129 4.129 0 0 0-2.155-.603l-4.146-.004v1.895c.578-.032.83-.324.83-.324s.262.338.709.338c.447 0 .774-.338.774-.338s.272.338.708.338c.436 0 .753-.36.753-.36s.306.393.785.393a.83.83 0 0 0 .697-.382s.158.203.398.3c.169-.444.387-.864.647-1.253m-7.23 7.233A6.267 6.267 0 0 1 0 7.324l.001-6.301 6.295.005c1.37 0 2.637.438 3.67 1.18A6.269 6.269 0 0 1 13.676 1l6.301.001-.005 6.295c0 1.37-.438 2.637-1.18 3.67A6.267 6.267 0 0 1 20 14.676l-.001 6.301-6.295-.005a6.269 6.269 0 0 1-3.67-1.18A6.268 6.268 0 0 1 6.324 21l-6.301-.001.005-6.295c0-1.37.438-2.637 1.18-3.67" mask="url(#f)"/>
        <path fill="#000" d="M13 6c0-1.104.672-2 1.5-2s1.5.896 1.5 2c0 1.105-.672 2-1.5 2S13 7.105 13 6M3 17c0-1.104.672-2 1.5-2s1.5.896 1.5 2c0 1.105-.672 2-1.5 2S3 18.105 3 17M3 13.5a.5.5 0 1 1 1 0 .5.5 0 0 1-1 0M5 14.5a.5.5 0 1 1 1 0 .5.5 0 0 1-1 0M6 15.5a.5.5 0 1 1 1 0 .5.5 0 0 1-1 0M7 17.5a.5.5 0 1 1 1 0 .5.5 0 0 1-1 0M93.395 20.534h.105l.158.257h.093l-.169-.26c.084-.009.152-.053.152-.158 0-.11-.067-.164-.203-.164h-.222v.582h.086v-.257zm0-.255h.12c.065 0 .133.015.133.09 0 .088-.075.094-.154.094h-.099v-.184zm.605.22a.5.5 0 1 0-.998 0 .5.5 0 0 0 .998 0zm-.094 0a.41.41 0 0 1-.406.423.41.41 0 0 1-.406-.422.41.41 0 0 1 .406-.422.41.41 0 0 1 .406.422z" mask="url(#f)"/>
    </g>
</svg>
