<svg xmlns="http://www.w3.org/2000/svg" width="61" height="72" viewBox="0 0 61 72">
    <g fill="none" fill-rule="evenodd">
        <path fill="#D45224" fill-rule="nonzero" d="M30.5 43C40.701 43 49 34.701 49 24.5 49 14.3 40.701 6 30.5 6S12 14.3 12 24.5C12 34.701 20.299 43 30.5 43zm0-35.222c9.22 0 16.722 7.502 16.722 16.722 0 9.221-7.502 16.722-16.722 16.722-9.22 0-16.722-7.5-16.722-16.722 0-9.22 7.502-16.722 16.722-16.722z"/>
        <path stroke="#D45224" stroke-linecap="round" stroke-linejoin="round" stroke-width="3" d="M22 25l6 7 12-13"/>
        <path fill="#D45224" fill-rule="nonzero" d="M.228 65.142c.26.29.674.379 1.03.222l13.035-5.835 4.402 11.885a.894.894 0 0 0 1.637.091l10.09-20.151L40.67 71.51c.154.302.462.49.796.49.018 0 .035 0 .053-.002a.893.893 0 0 0 .786-.584l4.402-11.885 13.034 5.835a.896.896 0 0 0 1.03-.222.904.904 0 0 0 .107-1.055l-13.01-22.386a24.498 24.498 0 0 0 7.023-17.194C54.89 10.994 43.96 0 30.526 0 17.092 0 6.162 10.994 6.162 24.507c0 6.674 2.669 12.73 6.985 17.154L.122 64.087a.904.904 0 0 0 .106 1.055zm19.428 3.712L15.79 58.416l6.626-10.802A24.091 24.091 0 0 0 29.6 48.99l-9.944 19.863zm21.682.016l-9.919-19.506v-.001l.187-.376a24.085 24.085 0 0 0 6.986-1.358l6.618 10.787-3.872 10.454zm5.48-11.263l-6.535-10.65a24.397 24.397 0 0 0 6.246-3.993L57.93 62.583l-11.113-4.976zM30.525 1.8c12.448 0 22.575 10.187 22.575 22.707 0 12.521-10.127 22.708-22.575 22.708-12.447 0-22.574-10.187-22.574-22.708C7.952 11.987 18.079 1.8 30.526 1.8zM14.484 42.929a24.403 24.403 0 0 0 6.244 4.01l-6.545 10.668-11.115 4.976L14.484 42.93z"/>
    </g>
</svg>
