<svg xmlns="http://www.w3.org/2000/svg" width="61" height="73" viewBox="0 0 61 73">
    <g fill="#D45224" fill-rule="evenodd">
        <path fill-rule="nonzero" d="M36.09 31.806H33.9c0 3.63-2.947 6.581-6.572 6.581-3.624 0-6.571-2.951-6.571-6.58h-2.19c0 4.837 3.93 8.774 8.761 8.774 4.831 0 8.762-3.937 8.762-8.775zM33.952 25.226h2.19v2.194h-2.19zM18.619 25.226h2.19v2.194h-2.19z"/>
        <path fill-rule="nonzero" d="M44 48l-9.005-1.787v-1.116a15.489 15.489 0 0 0 1.818-1.226c1.18-.931 2.25-2.135 3.272-3.682l.79-1.195.058-.1a15.347 15.347 0 0 0 1.368-3.872c2.67-.364 4.742-2.638 4.742-5.41v-9.87a19.92 19.92 0 0 0-.414-4.003 13.413 13.413 0 0 0 1.509-6.198V.214l-1.676 1.05c-.048.03-2.796 1.728-6.684 3.197A19.65 19.65 0 0 0 27.328 0C16.458 0 7.614 8.856 7.614 19.742v9.87c0 2.767 2.064 5.037 4.725 5.41.918 4.294 3.637 7.92 7.323 10.062v1.136l-5.656.871c-5.059.78-9.316 4.445-10.833 9.307L0 65.623V68h54.762v-3.504l-1.378-3.398C49.195 52.684 46.067 48.318 44 48zm-16.672 4.645c4.227 0 6.43-2.428 7.287-4.272l1.303.2c-.528 1.937-2.331 5.169-8.537 5.169-6.163 0-7.983-3.241-8.526-5.178l1.185-.183c.862 1.842 3.07 4.264 7.288 4.264zm5.477-5.644c-.189.572-1.34 3.45-5.477 3.45-4.135 0-5.284-2.865-5.476-3.45v-.87a15.198 15.198 0 0 0 5.476 1.03c1.906 0 3.748-.353 5.477-1.015V47zm9.802-14.283c.019-.304.055-.607.055-.912v-5.282a3.286 3.286 0 0 1 2.19 3.089 3.283 3.283 0 0 1-2.245 3.105zm2.245-12.976v5.512a5.42 5.42 0 0 0-2.19-1.013v-3.846a13.595 13.595 0 0 0 2.116-1.963c.033.436.074.871.074 1.31zm-35.047 9.87c0-1.427.918-2.634 2.19-3.088v5.282c0 .308.029.607.046.91a3.284 3.284 0 0 1-2.236-3.103zm2.19-7.296v1.924a5.435 5.435 0 0 0-2.19 1.013v-5.511c0-9.676 7.861-17.548 17.523-17.548 3.58 0 7.034 1.105 9.945 3.119-2.416.73-5.092 1.268-7.754 1.268v2.193c6.764 0 13.409-3.08 16.428-4.695V9.54c0 6.23-5.06 11.298-11.282 11.298a11.21 11.21 0 0 1-3.317-.5l-11.775-3.627a5.83 5.83 0 0 0-1.722-.26c-3.228 0-5.856 2.63-5.856 5.864zm2.19 9.49v-9.49a3.672 3.672 0 0 1 3.666-3.67c.366 0 .729.054 1.077.161l11.775 3.628c3.261 1.007 6.868.672 9.768-.721v10.092c0 2.125-.488 4.15-1.454 6.025l-.758 1.147c-.89 1.348-1.806 2.386-2.802 3.171a12.996 12.996 0 0 1-8.129 2.819c-7.247 0-13.142-5.904-13.142-13.162zM5.255 57.084c1.28-4.099 4.846-7.17 9.086-7.825l2.356-.363c.653 2.558 2.908 7.04 10.685 7.04 7.77 0 10.028-4.473 10.684-7.032l2.305.355c2.764.426 5.287 1.896 7.047 4.056l-5.204 7.296 6.918 5.195H13.236l.94-7.541-2.172-.272-.976 7.813H2.254l3-8.722z"/>
        <path d="M51 56l3.686-1.58A4.335 4.335 0 0 1 60 56a4.977 4.977 0 0 1-.228 5.835L51 73V56zM51 56l-3.686-1.58A4.335 4.335 0 0 0 42 56a4.977 4.977 0 0 0 .228 5.835L51 73V56z"/>
    </g>
</svg>
