<svg xmlns="http://www.w3.org/2000/svg" width="60" height="67" viewBox="0 0 60 67">
    <g fill="#D45224" fill-rule="nonzero">
        <path d="M56.76 52.707c-.719-4.354-3.746-7.926-7.899-9.322l-9.218-3.1v-1.382H37.5v2.028l-1.6 6.452-4.327-5.238h-3.147L24.1 47.383 22.5 40.931v-2.028h-2.143v1.382l-9.218 3.1C6.987 44.78 3.96 48.353 3.24 52.707L.877 67h58.244L56.76 52.707zm-27.33-8.4h1.139l2.54 3.073-2.086 3.154L33.05 64.84h-6.1l2.026-14.305-2.085-3.154 2.539-3.074zM5.354 53.063a9.682 9.682 0 0 1 6.463-7.628l8.853-2.977 2.374 9.577 2.416-2.924 1.279 1.934-1.954 13.793H12.97l.953-9.618-2.132-.215-.975 9.834H3.408l1.946-11.776zm43.83 11.775l-.975-9.834-2.132.215.953 9.618H35.215L33.26 51.045l1.279-1.934 2.416 2.924 2.374-9.578 8.853 2.978c3.398 1.142 5.874 4.065 6.463 7.628l1.946 11.776h-7.408z"/>
        <path d="M16.545 29.117a11.835 11.835 0 0 0 2.979 5.07l4.178 4.215a5.298 5.298 0 0 0 3.788 1.582h5.021a5.3 5.3 0 0 0 3.788-1.582l4.178-4.215a11.842 11.842 0 0 0 2.98-5.07 5.376 5.376 0 0 0 4.757-5.343 5.399 5.399 0 0 0-2.176-4.322h.033v-6.484c0-2.705-1.982-4.953-4.557-5.343C39.9 3.099 35.586 0 30.77 0H30c-8.862 0-16.071 7.272-16.071 16.21v3.242h.033a5.399 5.399 0 0 0-2.176 4.322 5.376 5.376 0 0 0 4.759 5.343zm22.416 3.542l-4.178 4.215a3.222 3.222 0 0 1-2.273.949H27.49a3.224 3.224 0 0 1-2.273-.95l-4.178-4.214a9.704 9.704 0 0 1-2.825-6.877v-5.25h4.21c4.715 0 9.173-1.689 12.696-4.783l.328.551a8.683 8.683 0 0 0 6.339 4.16v5.321a9.705 9.705 0 0 1-2.825 6.878zm4.917-5.827c.03-.346.05-.697.05-1.05v-5.05a3.236 3.236 0 0 1 2.143 3.042 3.233 3.233 0 0 1-2.193 3.058zM16.071 16.21C16.071 8.464 22.32 2.16 30 2.16h.771c4.117 0 7.782 2.788 8.914 6.781l.221.784h.808c1.772 0 3.215 1.454 3.215 3.242v5.512a5.308 5.308 0 0 0-1.072-.109 6.52 6.52 0 0 1-5.572-3.183l-1.716-2.883-.97.98c-3.252 3.28-7.575 5.086-12.175 5.086h-5.281c-.367 0-.726.038-1.072.11V16.21zm0 4.521v5.051c0 .353.02.704.05 1.052a3.235 3.235 0 0 1-2.192-3.06c0-1.407.899-2.596 2.142-3.043z"/>
    </g>
</svg>
