<svg xmlns="http://www.w3.org/2000/svg" width="27" height="27" viewBox="0 0 27 27">
    <g fill="none" fill-rule="evenodd">
        <path stroke="#45515D" stroke-width="1.5" d="M3.461 4.368l-2.72 17A4 4 0 0 0 4.691 26h16.618a4 4 0 0 0 3.95-4.632l-2.72-17A4 4 0 0 0 18.589 1H7.411a4 4 0 0 0-3.95 3.368z"/>
        <path stroke="#45515D" stroke-linecap="round" stroke-linejoin="round" stroke-width="1.5" d="M4 6l6.786 2.262a7 7 0 0 0 4.428 0L22 6"/>
        <path fill="#45515D" d="M7.556 14.467a1.863 1.863 0 0 1 2.593.093l.929.968h4.193l.893-1.01a1.563 1.563 0 0 1 2.293-.05c.665.686.697 1.766.073 2.49l-.073.084.108.126a1.731 1.731 0 0 1-.108 2.374 1.679 1.679 0 0 1-2.341-.007l-.845-.826h-4.193l-.756.74a1.931 1.931 0 0 1-2.599.093 1.631 1.631 0 0 1-.108-2.39l.108-.11-.167-.151a1.633 1.633 0 0 1 0-2.424z"/>
    </g>
</svg>
