<svg xmlns="http://www.w3.org/2000/svg" width="22" height="35" viewBox="0 0 22 35">
    <g fill="none" fill-rule="evenodd">
        <path fill="#D45224" d="M0 12.42C0 7.902 2.2 0 11 0s11 7.903 11 12.42C22 16.934 17.6 35 11.55 35 5.5 35 0 16.935 0 12.42z"/>
        <g fill="#FFF" transform="translate(4.04 5.548)">
            <path d="M7.15 10.753c2.43 0 4.4.883 4.4-1.344 0-2.227-1.97-5.646-4.4-5.646-2.43 0-4.4 3.419-4.4 5.646s1.97 1.344 4.4 1.344z"/>
            <ellipse cx="1.65" cy="4.301" rx="1.65" ry="1.613"/>
            <ellipse cx="4.95" cy="1.613" rx="1.65" ry="1.613"/>
            <ellipse cx="9.35" cy="1.613" rx="1.65" ry="1.613"/>
            <ellipse cx="12.65" cy="4.839" rx="1.65" ry="1.613"/>
        </g>
    </g>
</svg>
