<svg xmlns="http://www.w3.org/2000/svg" width="22" height="24" viewBox="0 0 22 24">
    <g fill="#FFF" fill-rule="nonzero">
        <path d="M18.452 2.295h-2.266v-1.25c0-.56-.413-1.045-.94-1.045-.526 0-.915.485-.915 1.046v1.25h-6.41v-1.25C7.922.485 7.51 0 6.984 0c-.526 0-.939.46-.939 1.046v1.25H3.801C1.832 2.295.253 4.08.253 6.248V19.79c0 2.194 1.602 3.954 3.548 3.954h14.65c1.97 0 3.549-1.786 3.549-3.954V6.25c0-2.168-1.602-3.954-3.548-3.954zM3.802 4.361h2.265v1.25c0 .561.412 1.046.939 1.046.526 0 .938-.46.938-1.046v-1.25h6.41v1.25c0 .561.412 1.046.939 1.046.526 0 .938-.46.938-1.046v-1.25h2.22c.94 0 1.695.842 1.695 1.888v2.423H2.107V6.249c0-1.046.756-1.888 1.694-1.888zm14.65 17.318H3.802c-.94 0-1.695-.842-1.695-1.888v-9.028h18.039v9.028c0 1.046-.756 1.888-1.694 1.888z"/>
        <path d="M12.786 13.614l-2.558 3.019-1.037-1.208a.884.884 0 0 0-1.313-.05 1.094 1.094 0 0 0-.046 1.434l1.705 2.013c.184.201.415.327.691.327.277 0 .507-.126.691-.327l3.25-3.824a1.094 1.094 0 0 0-.047-1.435c-.391-.402-.99-.377-1.336.05z"/>
    </g>
</svg>
