<svg xmlns="http://www.w3.org/2000/svg" width="25" height="25" viewBox="0 0 25 25">
    <g fill="#D45224" fill-rule="nonzero">
        <path d="M7.403 17.68c.062.554.308 1.108.739 1.477.492.492 1.169.738 1.846.738s1.354-.246 1.846-.738c.861-.862.984-2.154.37-3.2l4.676-4.677a2.612 2.612 0 0 0 3.2-.37c.492-.492.738-1.168.738-1.845s-.246-1.354-.738-1.847c-.43-.43-.923-.676-1.477-.738-.061-.554-.308-1.108-.738-1.477-.985-.985-2.647-.985-3.693 0-.492.492-.738 1.17-.738 1.846 0 .493.123.923.37 1.354L9.125 12.88a2.635 2.635 0 0 0-1.354-.37c-.677 0-1.354.247-1.846.74-.492.492-.738 1.168-.738 1.845s.246 1.354.738 1.847c.37.43.923.676 1.477.738zm-.615-3.508c.492-.492 1.415-.492 1.907 0a.559.559 0 0 0 .431.185.559.559 0 0 0 .43-.185l5.416-5.415a.559.559 0 0 0 .185-.43.559.559 0 0 0-.185-.432c-.246-.246-.369-.615-.369-.984 0-.37.123-.677.37-.985.553-.554 1.415-.554 1.907 0 .308.308.43.739.37 1.17 0 .184.06.369.184.553.123.123.308.185.554.185a1.36 1.36 0 0 1 1.169.37c.246.245.37.614.37.984 0 .369-.124.677-.37.984-.554.554-1.415.554-1.908 0a.595.595 0 0 0-.861 0l-5.416 5.416a.595.595 0 0 0 0 .861c.554.554.554 1.416 0 1.908-.554.554-1.415.554-1.907 0a1.36 1.36 0 0 1-.37-1.17.993.993 0 0 0-.184-.553.559.559 0 0 0-.431-.185h-.062a1.36 1.36 0 0 1-1.169-.369c-.246-.246-.369-.615-.369-.985 0-.369 0-.677.308-.923z"/>
        <path d="M12.88 24.08c6.646 0 12-5.415 12-12 0-6.646-5.415-12-12-12-6.646 0-12 5.415-12 12s5.354 12 12 12zm0-22.83c5.97 0 10.77 4.86 10.77 10.768s-4.862 10.77-10.77 10.77c-5.908 0-10.77-4.862-10.77-10.77 0-5.907 4.8-10.769 10.77-10.769z"/>
    </g>
</svg>
