<svg xmlns="http://www.w3.org/2000/svg" width="25" height="25" viewBox="0 0 25 25">
    <g fill="#FFF" fill-rule="nonzero">
        <path d="M6.795 18.333c.064.577.32 1.154.77 1.539.512.513 1.217.769 1.922.769.705 0 1.41-.256 1.923-.77.898-.897 1.026-2.243.385-3.333l4.872-4.871A2.721 2.721 0 0 0 20 11.282c.513-.513.77-1.218.77-1.923 0-.705-.257-1.41-.77-1.923-.449-.449-.962-.705-1.538-.77-.065-.576-.321-1.153-.77-1.538-1.025-1.025-2.756-1.025-3.846 0-.513.513-.77 1.218-.77 1.923 0 .513.13.962.386 1.41L8.59 13.334a2.745 2.745 0 0 0-1.41-.384c-.706 0-1.41.256-1.924.769-.512.513-.769 1.218-.769 1.923 0 .705.257 1.41.77 1.923.384.449.96.705 1.538.77zm-.641-3.654c.513-.512 1.474-.512 1.987 0a.582.582 0 0 0 .449.193c.192 0 .32-.064.448-.193l5.641-5.64a.582.582 0 0 0 .193-.45.582.582 0 0 0-.193-.448c-.256-.256-.384-.641-.384-1.026 0-.384.128-.705.384-1.025.577-.577 1.475-.577 1.988 0 .32.32.448.769.384 1.218 0 .192.064.384.193.577.128.128.32.192.577.192.448-.064.897.064 1.217.385.257.256.385.64.385 1.025 0 .385-.128.705-.385 1.026-.576.577-1.474.577-1.987 0a.62.62 0 0 0-.897 0l-5.641 5.64a.62.62 0 0 0 0 .898c.577.577.577 1.475 0 1.987-.577.577-1.475.577-1.987 0-.32-.32-.45-.769-.385-1.217 0-.193-.064-.385-.192-.577a.582.582 0 0 0-.449-.193h-.064a1.417 1.417 0 0 1-1.218-.384c-.256-.257-.385-.641-.385-1.026s0-.705.32-.962z"/>
        <path d="M12.5 25C19.423 25 25 19.359 25 12.5 25 5.577 19.359 0 12.5 0 5.577 0 0 5.641 0 12.5S5.577 25 12.5 25zm0-23.782c6.218 0 11.218 5.064 11.218 11.218S18.654 23.654 12.5 23.654 1.282 18.59 1.282 12.436s5-11.218 11.218-11.218z"/>
    </g>
</svg>
