<svg xmlns="http://www.w3.org/2000/svg" viewBox="0 0 431.7 491.36">
	<defs>
		<style>.cls-1{fill:#fff;}</style>
	</defs>
	<g id="Capa_2" data-name="Capa 2">
		<g id="Capa_1-2" data-name="Capa 1">
			<path class="cls-1" d="M431.68,122.91s0,0,0,.06Z"/>
			<path class="cls-1"
				  d="M431.68,123v79.8a202.1,202.1,0,0,1-79.28-16,198.59,198.59,0,0,1-45.07-26.24l.38,179.33a150.11,150.11,0,0,1-45.07,106.86A153.45,153.45,0,0,1,177,489.63,155.35,155.35,0,0,1,59.58,459.45a164.61,164.61,0,0,1-14.51-12.68,150.73,150.73,0,0,1-6.82-207.86,155.21,155.21,0,0,1,138.77-50v81.3a75.23,75.23,0,0,0-22.88-3.65,72.61,72.61,0,0,0-4,145.11A71.68,71.68,0,0,0,177,408.14a72.73,72.73,0,0,0,49.87-68.91l.1-120V0h80.24a124.11,124.11,0,0,0,2.4,23.26A124.27,124.27,0,0,0,356.72,98a123.8,123.8,0,0,0,74.77,25S431.64,123,431.68,123Z"/>
		</g>
	</g>
</svg>