<svg xmlns="http://www.w3.org/2000/svg" width="13" height="16" viewBox="0 0 13 16">
    <g fill="#FFF" fill-rule="nonzero">
        <path d="M12.472 6.446c.027-.046.045 1.904.055 1.853.317-.71.478-1.474.473-2.246C12.929 2.691 10.04 0 6.5 0S.071 2.69 0 6.053A5.423 5.423 0 0 0 .473 8.3c.01.051.028.1.055.147l.113.19c.063.117.131.232.205.344l5.198 6.767a.53.53 0 0 0 .457.253.53.53 0 0 0 .457-.253l5.199-6.767c.07-.112.142-.227.205-.344l.11-2.19zM6.5.876c3.009.003 5.448 2.32 5.45 5.18A4.365 4.365 0 0 1 11.4 8.2h.015l-4.915 6.284L1.586 8.2h.016a4.365 4.365 0 0 1-.552-2.145C1.053 3.197 3.49.88 6.5.876z"/>
        <path d="M8.21 8.36c1.28-.808 1.744-2.389 1.091-3.713-.653-1.325-2.225-1.993-3.695-1.57-1.47.423-2.392 1.808-2.168 3.256.224 1.448 1.528 2.52 3.063 2.52.608 0 1.203-.172 1.71-.492zM6.5 3.916c1.14 0 2.064.88 2.064 1.967 0 1.087-.924 1.967-2.063 1.967-1.14 0-2.063-.88-2.063-1.967 0-1.086.923-1.967 2.063-1.967z"/>
    </g>
</svg>
