<svg xmlns="http://www.w3.org/2000/svg" width="86" height="74" viewBox="0 0 86 74">
    <path fill="#000" fill-rule="nonzero" d="M81.028 28.96h-4.104v-4.517c0-4.302-3.156-7.861-7.241-8.44l-.01-8.745c0-4.002-3.21-7.258-7.157-7.258h-.197L15.586 15.94l.02.062c-4.087.576-7.246 4.137-7.246 8.44V41.85A17.095 17.095 0 0 0 0 56.57c0 9.405 7.54 17.054 16.807 17.054 6.733 0 12.538-4.046 15.22-9.86h36.49c4.637 0 8.406-3.827 8.406-8.53v-4.52h4.104c2.678 0 4.855-2.21 4.855-4.927v-11.9c.001-2.716-2.176-4.926-4.854-4.926zM62.704 2.547c2.478.1 4.464 2.175 4.464 4.714l.01 8.651H23.532L62.704 2.546zM16.808 71.082c-7.885 0-14.302-6.51-14.302-14.512s6.417-14.512 14.302-14.512c7.886 0 14.304 6.51 14.304 14.512s-6.418 14.512-14.304 14.512zm57.61-15.849c0 3.307-2.639 5.99-5.9 5.99H32.967c.415-1.482.651-3.038.651-4.653 0-9.404-7.54-17.054-16.809-17.054-2.094 0-4.091.407-5.942 1.121V24.443c0-3.308 2.642-5.99 5.9-5.99h51.752c3.26 0 5.9 2.682 5.9 5.99v4.518h-9.115c-2.676 0-4.855 2.21-4.855 4.926v11.9c0 2.716 2.179 4.927 4.855 4.927h9.115v4.52zm8.96-9.446c0 1.315-1.054 2.386-2.35 2.386H65.303c-1.295 0-2.35-1.071-2.35-2.386v-11.9c0-1.315 1.056-2.384 2.35-2.384h15.725c1.297 0 2.35 1.07 2.35 2.384v11.9z"/>
</svg>
