<svg xmlns="http://www.w3.org/2000/svg" width="93" height="83" viewBox="0 0 93 83">
    <g fill="#000" fill-rule="nonzero">
        <path d="M55.85 52.94c-7.332 4.22-17.032 2.968-22.816-3.12-5.82-5.924-7.047-15.185-2.836-22.458 4.773-8.243 15.024-11.6 23.743-7.812 2.217.85 1.2 4.148-1.356 3.04-7.184-3.11-15.579-.337-19.5 6.435-3.575 6.173-2.378 13.914 2.649 18.784 4.97 4.683 12.4 5.735 18.448 2.251 6.791-3.909 9.575-12.279 6.455-19.442-1.112-2.549 2.197-3.562 3.049-1.352 3.8 8.693.432 18.914-7.837 23.674z"/>
        <path d="M75.187 47.327L91.91 63.999c1.868 1.863 1.017 4.142-1.49 4.723L80.8 70.965l-2.249 9.589c-.583 2.503-2.867 3.35-4.737 1.486L57.094 65.367l-6.343 6.324c-2.35 2.344-6.231 2.344-8.581 0l-6.343-6.324L19.106 82.04c-1.869 1.862-4.154 1.014-4.737-1.486l-2.25-9.59-9.617-2.242c-2.51-.58-3.36-2.859-1.49-4.723l16.722-16.672-6.343-6.33c-2.349-2.345-2.35-6.207 0-8.55l7.24-7.217V15.024c0-3.329 2.726-6.048 6.065-6.048h10.236l7.238-7.218c2.35-2.343 6.23-2.343 8.581 0l7.238 7.218h10.236c3.338 0 6.065 2.72 6.065 6.048V25.23l7.24 7.217c2.35 2.343 2.349 6.205 0 8.55l-6.343 6.33zM60.913 64.473l14.583 14.54L78.028 68.2l10.845-2.525-14.583-14.54v7.29c0 3.33-2.726 6.048-6.065 6.048h-7.312zM18.631 51.135L4.048 65.675 14.893 68.2l2.532 10.813 14.583-14.54h-7.312c-3.339 0-6.065-2.719-6.065-6.048v-7.29zM24.696 12.3a2.74 2.74 0 0 0-2.73 2.723v11.584l-8.217 8.19c-1.053 1.05-1.054 2.804-.004 3.856l8.22 8.187v11.584a2.74 2.74 0 0 0 2.731 2.723h11.618l8.214 8.192c1.054 1.051 2.81 1.051 3.865 0l8.214-8.192h11.618a2.74 2.74 0 0 0 2.73-2.723V46.841l8.22-8.187c1.051-1.052 1.05-2.806-.003-3.856l-8.216-8.19V15.024a2.74 2.74 0 0 0-2.731-2.723H56.607L48.393 4.11c-1.054-1.051-2.81-1.051-3.865 0l-8.214 8.192H24.696z"/>
    </g>
</svg>
