<svg xmlns="http://www.w3.org/2000/svg" width="80" height="82" viewBox="0 0 80 82">
    <g fill="#000" fill-rule="nonzero">
        <path d="M48.565 18.684c-.474 0-.95.01-1.416.031l.12 2.724.135-.005V28.7h2.707v-7.247c14.689.789 26.483 12.74 27.15 27.564h-6.976v2.726h6.973c-.703 14.789-12.483 26.702-27.147 27.489v-7.172h-2.707v7.189c-14.747-.594-26.668-12.434-27.517-27.218l4.987 5.022 1.914-1.928-8.199-8.257-8.2 8.257 1.915 1.928 4.877-4.912C18.111 68.763 31.831 82 48.565 82 65.898 82 80 67.798 80 50.342c0-17.457-14.102-31.658-31.435-31.658z"/>
        <path d="M48.934 56.05c2.399 0 4.43-1.675 5.079-3.965h12.48v-2.836H54.089c-.446-1.978-1.91-3.55-3.782-4.074v-11.96h-2.714v11.95c-2.274.623-3.956 2.786-3.956 5.353 0 3.05 2.377 5.533 5.298 5.533zm-1.342-7.832c.391-.25.85-.397 1.342-.397.504 0 .975.154 1.373.417.378.25.692.597.904 1.01a2.778 2.778 0 0 1-.18 2.837c-.469.683-1.233 1.13-2.097 1.13-1.424 0-2.583-1.21-2.583-2.697a2.72 2.72 0 0 1 1.24-2.3zM30.392 43.595c5.584 0 10.127-4.587 10.127-10.226 0-3.322-1.619-6.452-4.331-8.373-1.994-1.412-3.795-3.357-5.351-5.78-1.884-2.933-5.061-4.684-8.5-4.684-3.437 0-6.614 1.75-8.498 4.683-1.556 2.424-3.357 4.369-5.352 5.781a10.275 10.275 0 0 0-4.331 8.373c0 5.639 4.543 10.226 10.127 10.226h16.11zM6.88 33.369a7.513 7.513 0 0 1 3.172-6.12c2.282-1.616 4.325-3.816 6.073-6.536 1.38-2.148 3.702-3.43 6.213-3.43 2.51 0 4.833 1.282 6.212 3.43 1.748 2.72 3.791 4.92 6.073 6.536a7.514 7.514 0 0 1 3.172 6.12c0 4.122-3.321 7.475-7.403 7.475h-16.11c-4.08 0-7.402-3.353-7.402-7.475zM8.312 17.003v-3.904c0-2.644-1.865-4.795-4.156-4.795C1.865 8.304 0 10.455 0 13.099v3.904c0 2.643 1.865 4.794 4.156 4.794 2.291 0 4.156-2.15 4.156-4.794zm-5.887 0v-3.904c0-1.102.776-1.997 1.73-1.997.955 0 1.731.896 1.731 1.997v3.904c0 1.1-.776 1.996-1.73 1.996-.955 0-1.731-.895-1.731-1.996zM38.441 21.797c2.292 0 4.156-2.15 4.156-4.794v-3.904c0-2.644-1.864-4.795-4.156-4.795-2.291 0-4.155 2.151-4.155 4.795v3.904c0 2.643 1.864 4.794 4.155 4.794zm-1.73-8.698c0-1.102.776-1.997 1.73-1.997.955 0 1.731.895 1.731 1.997v3.903c0 1.102-.776 1.997-1.73 1.997-.955 0-1.731-.896-1.731-1.997V13.1zM15.585 13.494c2.291 0 4.155-2.152 4.155-4.795V4.795C19.74 2.151 17.876 0 15.585 0c-2.292 0-4.156 2.151-4.156 4.795v3.904c0 2.644 1.864 4.795 4.156 4.795zm-1.731-8.699c0-1.101.776-1.997 1.73-1.997.955 0 1.731.896 1.731 1.997v3.904c0 1.101-.776 1.997-1.73 1.997-.955 0-1.731-.896-1.731-1.997V4.795zM28.052 13.494c2.292 0 4.156-2.152 4.156-4.795V4.795C32.208 2.151 30.343 0 28.052 0c-2.292 0-4.156 2.151-4.156 4.795v3.904c0 2.644 1.864 4.795 4.156 4.795zM26.32 4.795c0-1.101.776-1.997 1.73-1.997.955 0 1.732.896 1.732 1.997v3.904c0 1.101-.777 1.997-1.731 1.997-.955 0-1.731-.896-1.731-1.997V4.795z"/>
    </g>
</svg>
