<svg xmlns="http://www.w3.org/2000/svg" width="87" height="77" viewBox="0 0 87 77">
    <path fill="#000" fill-rule="evenodd" d="M70.685.812c.459.044.909.128 1.359.226.476.102.948.2 1.42.328.494.137.983.297 1.46.487 1.778.7 3.403 1.755 4.888 2.978.936.762 1.84 1.568 2.591 2.534.944 1.218 1.678 2.61 2.238 4.058.454 1.179.8 2.41.974 3.669.079.562.122 1.13.11 1.701-.014.58-.08 1.165-.154 1.741a28.508 28.508 0 0 1-.424 2.517c-.35 1.595-.834 3.159-1.642 4.568-.254.412-.52.815-.783 1.223-.611.948-1.223 1.896-1.84 2.84-.48.722-.965 1.44-1.467 2.148l-.157.217c.122.218.24.435.358.652l.175.34c.222.546.42 1.095.576 1.662.464 1.644.665 3.354.734 5.06.027.647.035 1.29.031 1.936-.004.244-.035.696-.017.9.017.133.034.265.056.398.123.652.324 1.285.55 1.901.302.806.656 1.59 1.019 2.37.48.997.974 1.985 1.472 2.973.267.54.529 1.086.791 1.626.24.488.485.975.721 1.462.402.856.747 1.728.957 2.654.406 1.8.35 3.669.236 5.499l-1.062 10.35a8.223 8.223 0 0 1-.454 1.475 5.68 5.68 0 0 1-2.32 2.65c-.56.332-1.158.544-1.779.73l-3.928.147a7.943 7.943 0 0 1-1.074-.266 4.929 4.929 0 0 1-1.761-1.002c-.69-.624-1.162-1.457-1.42-2.361a9.193 9.193 0 0 1-.232-1.148c-.052-.336-.105-.669-.118-1.01-.03-.709.07-1.417.345-2.069.31-.753.835-1.382 1.442-1.896.149-.124.302-.244.463-.359.131-.097.284-.173.398-.292.048-.058.087-.12.127-.186.126-.253.196-.537.236-.82a7.01 7.01 0 0 0 .035-1.387l-.145-3.35a68.453 68.453 0 0 1-1.564-.646c-.467-.204-.935-.417-1.402-.63-1.119-.535-2.216-1.107-3.255-1.803a92.446 92.446 0 0 1-.962-.895c-1.516-1.484-2.931-3.083-4.107-4.873a20.125 20.125 0 0 1-.944-1.6c-.183-.34-.34-.7-.528-1.036a5.464 5.464 0 0 0-.293-.461 2.383 2.383 0 0 0-.594-.576c-.354-.23-.774-.328-1.184-.377-.577-.07-1.163-.048-1.744-.026l-.266.017-.363.023-7.13 2.591c-.31.138-.62.266-.931.39-.35.133-.7.257-1.049.377a29.504 29.504 0 0 1-7.851 1.453l-.359.013h-.17c-.092.306-.17.616-.249.926-.354 1.578-.507 3.204-.192 4.803.13.67.354 1.298.607 1.927l1.363 7.329-1.516 5.777c-.166.337-.166.337-.345.66-.642 1.095-1.525 2.016-2.66 2.543-.407.19-.822.306-1.255.408l-5.033-.16c-.258-.124-.442-.203-.673-.332a6.068 6.068 0 0 1-1.097-.757 6.063 6.063 0 0 1-1.98-3.523 7.058 7.058 0 0 1-.095-.864c-.005-.124-.018-.252-.009-.376a6.658 6.658 0 0 1 .594-1.9 7.6 7.6 0 0 1 1.494-2.052c.21-.209.429-.408.66-.594.105-.089.236-.173.324-.288a.201.201 0 0 0 .004-.053 1.34 1.34 0 0 0-.018-.186 5.132 5.132 0 0 0-.227-.807l-.04-.115-4.124-9.995c-.467-.47-.93-.948-1.385-1.427-1.009-1.072-1.996-2.17-2.875-3.363-.677-.917-1.293-1.891-1.739-2.95a9.494 9.494 0 0 1-.463-1.383c-.144-.585-.236-1.187-.328-1.78a71.4 71.4 0 0 1-.301-2.163 107.119 107.119 0 0 1-.581-6.371c-.053-.873-.087-1.741-.14-2.61-.022-.248-.022-.248-.048-.491-.249-1.764-.778-3.487-1.46-5.118-.467-1.107-1.009-2.215-1.76-3.141-.018-.022-.1-.062-.118-.07a2.164 2.164 0 0 0-.25-.12c-.475-.191-.991-.244-1.502-.275-.48-.036-.966-.045-1.45-.053l-5.266-.226a6.422 6.422 0 0 1-1.743-.417 6.022 6.022 0 0 1-1.062-.545 6.376 6.376 0 0 1-.738-.545C1.498 20.422.536 18.06.16 15.725c-.188-1.187-.276-2.437.104-3.597a5.31 5.31 0 0 1 .927-1.649c.249-.305.528-.571.804-.846.34-.133.34-.137.686-.257a16.686 16.686 0 0 1 1.66-.443c.9-.186 1.805-.354 2.705-.54a28.163 28.163 0 0 0 2.403-.625c.091-.031.183-.066.275-.11.603-.329.93-1.007 1.232-1.61.267-.562.516-1.129.79-1.687.21-.412.43-.81.683-1.192.187-.283.292-.412.524-.718l.498-.288C15.073 1.295 16.873.847 18.66.52c.918-.169 1.84-.297 2.766-.4C21.605.1 22.479.007 22.64.002c.083-.004.782.005.9.01.62.012 1.245.043 1.865.092 1.993.164 4.138.54 5.75 1.865a6.592 6.592 0 0 1 1.464 1.728c.599 1.01.996 2.136 1.46 3.212l.152.346.162.346c1.935 3.894 3.893 7.78 5.798 11.687.314.66.612 1.325.93 1.98.11.214.215.417.333.617.13.204.266.399.445.554a2.3 2.3 0 0 0 .669.367c.301.116.616.195.93.262.638.142 1.285.23 1.932.31.598.07 1.197.133 1.795.19.608.058 1.206.111 1.818.089 1.215-.049 2.416-.284 3.605-.536 1.21-.257 2.416-.55 3.626-.82.538-.115.538-.115 1.08-.226 1.555-.297 3.12-.54 4.705-.531.468.004.935.026 1.398.08.385.04.77.106 1.158.146.983.093 1.97.132 2.95.226 1.498.15 2.988.42 4.334 1.147l.096.053a29.284 29.284 0 0 0 2.115-1.737c.502-.456.996-.934 1.428-1.466.162-.195.32-.399.446-.62.092-.16.162-.337.227-.505.092-.23.175-.466.245-.705.166-.554.27-1.125.266-1.706 0-.748-.2-1.466-.585-2.095a6.32 6.32 0 0 0-.717-.922c-1.026-1.139-2.328-1.971-3.731-2.52-.555-.218-1.123-.408-1.682-.621a22.84 22.84 0 0 1-.9-.381c-.599-.288-1.176-.625-1.647-1.108a4.313 4.313 0 0 1-.455-.563c-.074-.12-.083-.11-.175-.221-.048-.062-.096-.129-.144-.19a4.292 4.292 0 0 1-.568-1.259 4.832 4.832 0 0 1 .524-3.606c.206-.337.45-.647.743-.904.136-.124.302-.248.45-.355.45-.34.944-.633 1.486-.784a3.78 3.78 0 0 1 .86-.128c.171-.005.337.004.503.013zm-48.377 2.53c-1.415.146-2.826.337-4.216.651-1.022.235-2.036.523-2.98.988l-.048.027c-.192.279-.35.576-.502.877-.306.62-.581 1.254-.883 1.874-.45.873-.979 1.706-1.739 2.322-.332.27-.699.492-1.083.664-.512.222-1.053.36-1.586.501-1.416.377-2.854.62-4.282.917-.297.067-.59.133-.879.213-.152.04-.152.04-.301.088l-.096.031c-.17.19-.332.404-.424.647-.114.297-.127.63-.114.944.014.372.057.74.118 1.103.053.324.114.638.193.953.07.27.153.531.244.793.45 1.263 1.246 2.525 2.504 3.026.227.093.467.15.708.19l.074.01c2.132.22 4.256.177 6.384.26.353.023.353.023.707.05a9.46 9.46 0 0 1 1.263.194 5.9 5.9 0 0 1 1.547.62c.144.085.485.293.542.337.1.085.17.19.253.288.118.133.227.27.336.412.533.696.98 1.458 1.377 2.242a25.608 25.608 0 0 1 1.512 3.757c.445 1.423.79 2.88.921 4.373.053.882.092 1.768.145 2.65.21 3.154.48 6.318 1.053 9.424.021.124.052.248.083.372.354 1.232 1.048 2.313 1.813 3.318.93 1.214 1.97 2.33 3.028 3.425l.31.32.883.89 4.4 10.664c.353.97.65 2.02.445 3.066a3.21 3.21 0 0 1-.153.532c-.083.23-.192.443-.327.647-.18.279-.407.527-.652.748-.196.178-.406.337-.607.519a6.428 6.428 0 0 0-.384.39c-.394.443-.7.943-.857 1.524l-.017.075c.043.651.28 1.276.716 1.75.193.208.411.372.651.518l.062.036 3.954.128c.118-.04.236-.084.354-.141.555-.297.939-.785 1.245-1.343l.013-.026 1.232-4.697-1.162-6.238c-.1-.253-.096-.253-.188-.505-.118-.341-.118-.341-.223-.687a13.494 13.494 0 0 1-.41-2.082c-.18-1.626-.04-3.27.305-4.86.284-1.32.734-2.584 1.176-3.86.58.031 1.162.062 1.743.08 1.652.009 3.294-.182 4.911-.514 1.643-.337 3.25-.82 4.793-1.497l7.638-2.783c.847-.053 1.695-.115 2.543-.084a8.1 8.1 0 0 1 1.9.27c1.14.315 2.128 1.033 2.849 2.003.227.301.424.625.603.957.205.377.38.77.585 1.147.14.257.289.506.437.754.91 1.444 1.984 2.76 3.164 3.978.467.483.943.962 1.45 1.405.053.044.118.075.175.115.236.146.371.23.612.368.476.27.965.523 1.455.762 1.678.81 3.412 1.48 5.142 2.157l.236 5.499c.01.208.018.416.022.629 0 1.431-.24 2.95-1.17 4.072a3.511 3.511 0 0 1-.499.491c-.223.187-.467.333-.695.51-.1.084-.2.173-.297.266a1.74 1.74 0 0 0-.28.363c-.218.408-.109.895-.043 1.33.092.57.18 1.2.647 1.585.122.098.262.178.406.24.18.075.358.124.542.168l3.185-.12c.677-.221 1.284-.611 1.63-1.28.126-.248.214-.514.28-.784l.008-.049 1.04-10.088c.026-.43.044-.86.061-1.285.022-1.064.009-2.14-.227-3.181a8.274 8.274 0 0 0-.524-1.538c-.28-.62-.586-1.227-.887-1.834-.756-1.55-1.538-3.084-2.286-4.639a50.19 50.19 0 0 1-.594-1.311c-.59-1.383-1.123-2.805-1.324-4.311l-.017-.164-.022-.244c.013-.545.026-1.085.022-1.626-.022-2.118-.188-4.267-.9-6.27l-.074-.194-.057-.137c-.184-.35-.372-.696-.568-1.037-.31-.554-.63-1.108-.944-1.657l.944-1.223a52.538 52.538 0 0 0 1.616-2.295c.922-1.396 1.822-2.81 2.731-4.214.739-1.187 1.114-2.6 1.398-3.97.162-.792.284-1.594.372-2.4.048-.457.096-.913.07-1.37-.066-1.147-.35-2.273-.739-3.345-.502-1.391-1.197-2.747-2.154-3.863-.362-.421-.773-.789-1.188-1.152-1.403-1.227-2.94-2.326-4.667-3.004-.777-.306-1.577-.492-2.394-.67-.262-.057-.529-.11-.8-.15-.14-.018-.297-.044-.437-.009-.148.031-.288.138-.41.226-.11.08-.227.155-.324.253-.196.2-.275.518-.284.797-.004.16.005.377.105.51l.01.009.2.19c.066.12.118.244.201.346.135.142.306.243.472.337.231.124.476.23.72.327.643.266 1.307.479 1.954.731.288.116.572.235.856.368 1.59.762 3.041 1.799 4.221 3.16.839.965 1.516 2.082 1.805 3.362.109.47.179.948.196 1.435a8.99 8.99 0 0 1-.266 2.464c-.123.51-.284 1.01-.477 1.493a7.373 7.373 0 0 1-.437.944c-.498.868-1.188 1.608-1.891 2.295-1.11 1.085-2.325 2.051-3.575 2.96l-1.354.956c-.363-.323-.734-.682-1.123-.988a5.107 5.107 0 0 0-.363-.234c-.73-.39-1.542-.568-2.35-.683-1.241-.173-2.495-.2-3.74-.31-.468-.053-.931-.128-1.403-.173-1.665-.128-3.33.107-4.963.43-1.565.31-3.107.7-4.662 1.037-.52.11-.52.11-1.04.212-1.442.262-2.88.452-4.348.377-.546-.044-1.088-.102-1.634-.155-.498-.053-.716-.075-1.21-.133a43.27 43.27 0 0 1-1.057-.146c-1.434-.222-2.958-.536-4.108-1.515a5.227 5.227 0 0 1-.825-.909c-.363-.496-.643-1.05-.91-1.604-.27-.567-.528-1.143-.799-1.71-1.905-3.912-3.867-7.793-5.798-11.692-.432-.922-.8-1.87-1.21-2.8-.096-.213-.197-.421-.302-.625-.196-.35-.415-.687-.703-.957-.703-.669-1.69-.93-2.6-1.099-1.201-.221-2.429-.27-3.648-.292l-.323-.004c-.158.013-.31.03-.464.044zm2.766 7.262c-.161.69-.327 1.386-.48 2.082-.048.235-.088.47-.127.709a15.156 15.156 0 0 0-.18 1.887c-.087 2.778.621 5.676 2.378 7.82.305.372.638.718.996 1.032.371.324.773.616 1.197.873.38.23.778.448 1.193.598.205.076.42.142.638.16a.659.659 0 0 0 .358-.04.5.5 0 0 0 .131-.102c.293-.332.433-.802.542-1.227.214-.824.31-1.68.402-2.526l.245-2.352 3.15.35c-.092.913-.184 1.83-.284 2.742-.044.381-.092.762-.149 1.139-.218 1.405-.563 2.906-1.481 4.005-.232.28-.502.523-.8.722a3.08 3.08 0 0 1-.594.32c-.21.088-.428.155-.65.203-1.412.284-2.836-.292-4.047-.992-.262-.15-.515-.31-.764-.479a11.316 11.316 0 0 1-1.128-.873 11.34 11.34 0 0 1-1.188-1.2 11.659 11.659 0 0 1-1.154-1.582c-1.634-2.65-2.298-5.862-2.15-8.985.049-1.077.202-2.136.429-3.186l.433-1.874c1.03.257 2.057.514 3.084.776z"/>
</svg>
