<svg xmlns="http://www.w3.org/2000/svg" width="116" height="78" viewBox="0 0 116 78">
    <path fill="#000" fill-rule="nonzero" d="M.504 27.206c-.507.75-.888 2.068.172 4.076 2.201 4.166 10.308 10.22 18 10.218 5.736 0 9.542-.9 11.81-1.714-.325 3.335-.288 6.041-.253 8.307.075 4.961.11 7.452-3.501 10.59l-.382.329-.102.493c-.243 1.182-2.279 11.66 1.183 15.831l.447.525h9.784c.608-.026 2.235-.278 2.39-2.206.053-1.327-.056-3.73-1.367-5.23-.808-.927-1.927-1.386-3.256-1.29-.049-.951.365-2.578 2.876-4.558 4.571-3.605 9.284-7.325 10.773-13.436 3.732 1.265 13.046 4.086 21.786 4.086 2.558 0 4.882-.257 6.94-.749l-.214 12.207c-.018.862-.08 8.474 3.161 11.798C81.761 77.518 83.03 78 84.417 78h7.586c2.236 0 3.04-2.793 3.04-2.793.039-1.427-.17-3.477-1.43-5.008-.698-.853-2.017-1.869-4.323-1.869-.524 0-1.082.052-1.674.157C88.2 62.941 90 52.72 93.856 48.93c.314-.287 7.38-6.983 5.966-23.276l-.005-.566c3.514-.418 11.421-1.84 13.821-6.347 1.661-3.117 3.302-6.663 1.721-9.314-1.08-1.811-3.358-2.692-6.957-2.692-.45 0-.926.015-1.424.042C105.89 4.71 102.598.718 93.219.008L93.105 0l-.117.01c-.223.018-5.037.5-8.946 8.252a5.532 5.532 0 0 0-.975 2.153c-.053.126-.106.248-.157.377-3.32 8.373-7.839 12.91-22.2 12.91-.552 0-1.118-.006-1.698-.02-2.238-.052-4.774-.11-7.012-.11-7.739 0-14.254.506-18.033 5.301-1.46 1.139-14.074 10.351-25.855-.938-.394-.43-2.51-2.587-4.8-2.446-.789.052-1.913.392-2.808 1.717zM90.918 4.152c.044-.018 1.626-.656 2.29.81 1.73 3.71 3.148 8.157 2.072 9.65-.522.724-1.955.606-3.064.38-4.958-1.012-5.986-2.509-6.2-3.105a1.479 1.479 0 0 1-.073-.639c1.67-3.95 3.544-6.015 4.975-7.096zm-6.5 10.615c1.392 1.411 3.773 2.454 7.205 3.155.755.156 1.455.232 2.096.232 1.785 0 3.118-.6 3.975-1.79 1.99-2.764.319-7.978-1.326-11.688 0-.004-.175-1.237 1.176-.964a23.704 23.704 0 0 1 .6.165c5.49 1.617 6.387 4.661 6.426 4.801l.292 1.266 1.29-.114c3.632-.32 6.036.101 6.65 1.131.846 1.418-1 4.886-1.79 6.366-1.837 3.45-9.995 4.724-12.985 4.924l-1.577.105.181 1.45c-7.93-1.863-11.841-5.654-13.176-7.23.338-.58.656-1.183.962-1.809zm-3.302 5.216c.784-.826 1.626 0 1.626 0v-.001c2.127 2.149 6.387 5.12 13.326 6.739.334.18.692.5.834 1.034l-.016.782c-.243.872-1.362.689-1.362.689s-.01.004-.018.012c-3.173-.708-8.58-2.59-14.29-7.563-.134-.128-.819-.935-.1-1.692zM33.77 37.482c1.391-9.403 6.513-10.92 18.23-10.92 2.046 0 4.169.045 6.945.108 8.114.185 13.631-.91 17.605-3.112l-.002.004.048-.031c.04-.022.077-.045.117-.066.373-.197 1.34-.556 2.355.305l.04.032c6.62 5.829 12.91 7.821 16.409 8.5 0 0 1.417.747 1.214 2.219-1.09 8.502-4.845 12.159-4.921 12.23-6.168 6.061-7.3 22.892-7.345 23.606l-.036.557c.001.006.217 1.34 1.358 1.148l.636-.22c2.397-.803 4.09-.784 4.887.182.326.395.52.939.628 1.492 0 1.463-1.177 1.487-1.177 1.487h-6.345c-.594 0-1.082-.15-1.536-.616-2.014-2.061-2.352-7.617-2.311-9.615l.253-14.601c.029-1.676-1.987-1.09-1.987-1.09-2.192.77-4.874 1.16-7.973 1.16-8.688 0-18.303-3.06-21.387-4.127h-.001c-2.967-.956-3.1 1.401-3.1 1.401l-.009-.019c-.967 5.666-5.305 9.103-9.9 12.73-6.228 4.911-3.417 9.27-3.293 9.453l.62.926 1.06-.334c.34-.106.64-.165.89-.165.402 0 .576.126.703.275.284.324.457.93.551 1.547.005.102.02.938-.945.938h-6.69c-1.421-2.565-.987-8.573-.288-12.285 4.268-3.917 4.214-7.546 4.14-12.535-.043-2.746-.094-6.169.557-10.564zm-30.8-8.599c.265-.392.454-.405.534-.411.65-.035 1.836.844 2.427 1.501l.081.085C15.6 39.285 25.841 36.57 31.52 33.8a23.068 23.068 0 0 0-.594 2.617c-1.27.67-5.027 2.25-12.253 2.25-5.821 0-12.281-4.5-14.706-7.693-.924-1.218-1.021-1.98-.998-2.092z"/>
</svg>
