<svg xmlns="http://www.w3.org/2000/svg" width="85" height="82" viewBox="0 0 85 82">
    <g fill="none" fill-rule="evenodd">
        <g fill="#000" fill-rule="nonzero">
            <path d="M57.965 25.289l-4.355 1.833c-1.424.599-2.142 2.37-1.601 3.949.419 1.22 1.47 1.974 2.585 1.974.326 0 .656-.064.978-.2l4.355-1.833c1.424-.599 2.142-2.37 1.601-3.949-.541-1.578-2.142-2.373-3.563-1.774zm1.516 4.423l-4.355 1.834c-.776.325-1.649-.108-1.945-.97-.295-.86.098-1.827.875-2.154l4.355-1.834c.175-.073.356-.109.533-.109.609 0 1.183.412 1.412 1.078.294.862-.098 1.828-.875 2.155zM51.167 61.204l-4.294-2.043a2.634 2.634 0 0 0-2.136-.067c-.697.28-1.25.83-1.555 1.55-.631 1.487-.003 3.24 1.401 3.907l4.295 2.042c.366.174.754.262 1.144.262.335 0 .67-.065.992-.194.698-.28 1.25-.831 1.556-1.551.305-.72.328-1.523.063-2.26a2.874 2.874 0 0 0-1.466-1.646zm.246 3.356a1.553 1.553 0 0 1-.849.846c-.38.153-.795.14-1.166-.037l-4.294-2.042c-.767-.365-1.11-1.321-.766-2.132.254-.598.81-.952 1.393-.952.208 0 .42.046.622.142l4.294 2.042c.372.177.656.496.8.899.145.402.133.84-.034 1.234zM18.888 39.76a3.277 3.277 0 0 0 2.328.063c1.567-.545 2.358-2.154 1.762-3.586l-1.82-4.383c-.597-1.433-2.357-2.155-3.924-1.612-1.567.544-2.358 2.153-1.763 3.586l1.822 4.383c.288.694.855 1.244 1.595 1.549zm-1.163-8.337c.193-.067.392-.099.587-.099.67 0 1.303.373 1.554.978l1.821 4.384c.325.781-.106 1.66-.962 1.957a1.79 1.79 0 0 1-1.27-.035 1.574 1.574 0 0 1-.871-.845l-1.822-4.383c-.324-.782.107-1.66.963-1.957zM30.69 57.252c1.005-2.249.003-4.901-2.231-5.912a4.388 4.388 0 0 0-3.401-.102 4.426 4.426 0 0 0-2.476 2.348 4.47 4.47 0 0 0-.102 3.421 4.433 4.433 0 0 0 2.334 2.492c.582.263 1.2.395 1.82.395.533 0 1.067-.098 1.58-.294a4.426 4.426 0 0 0 2.476-2.348zm-5.357 1.084a3.169 3.169 0 0 1-1.668-1.781 3.193 3.193 0 0 1 .072-2.447 3.165 3.165 0 0 1 1.77-1.678 3.153 3.153 0 0 1 2.432.072c1.599.723 2.314 2.62 1.596 4.228a3.165 3.165 0 0 1-1.77 1.679 3.14 3.14 0 0 1-2.432-.073zM58.095 44.38a4.385 4.385 0 0 0-3.4-.102 4.426 4.426 0 0 0-2.476 2.347c-1.005 2.25-.003 4.902 2.232 5.913.582.263 1.2.395 1.82.395.533 0 1.067-.098 1.58-.294a4.427 4.427 0 0 0 2.476-2.347 4.47 4.47 0 0 0 .102-3.422 4.433 4.433 0 0 0-2.334-2.49zm1.077 5.39a3.165 3.165 0 0 1-1.77 1.678 3.138 3.138 0 0 1-2.432-.073c-1.599-.722-2.314-2.62-1.596-4.228a3.165 3.165 0 0 1 1.77-1.678 3.154 3.154 0 0 1 2.432.072c.774.35 1.367.983 1.668 1.782a3.194 3.194 0 0 1-.072 2.446z"/>
            <path d="M21.2 66.25a.662.662 0 0 0 .905-.244l.947-1.65a9.204 9.204 0 0 0 3.414.923v1.904c0 .368.297.666.663.666a.664.664 0 0 0 .662-.666v-1.904a9.204 9.204 0 0 0 3.414-.923l.946 1.65a.662.662 0 0 0 .905.245.669.669 0 0 0 .243-.91l-.943-1.645a9.442 9.442 0 0 0 2.502-2.518l1.633.949a.662.662 0 0 0 .905-.244.669.669 0 0 0-.242-.911l-1.64-.953c.51-1.052.83-2.21.916-3.436h1.892a.664.664 0 0 0 .663-.667.664.664 0 0 0-.663-.666H36.43a9.36 9.36 0 0 0-.916-3.436l1.64-.953a.669.669 0 0 0 .242-.911.66.66 0 0 0-.905-.244l-1.633.949a9.443 9.443 0 0 0-2.502-2.519l.943-1.644a.669.669 0 0 0-.243-.91.66.66 0 0 0-.905.244l-.946 1.65a9.203 9.203 0 0 0-3.414-.922V44.65a.664.664 0 0 0-.662-.667.664.664 0 0 0-.663.667v1.904a9.204 9.204 0 0 0-3.414.922l-.947-1.65a.66.66 0 0 0-.905-.244.669.669 0 0 0-.242.91l.943 1.644a9.442 9.442 0 0 0-2.502 2.518l-1.633-.948a.66.66 0 0 0-.905.244.669.669 0 0 0 .243.91l1.64.953a9.359 9.359 0 0 0-.917 3.437h-1.892a.664.664 0 0 0-.662.666c0 .369.296.667.662.667h1.892a9.358 9.358 0 0 0 .916 3.436l-1.64.953a.669.669 0 0 0 .333 1.244.655.655 0 0 0 .33-.09l1.633-.948a9.443 9.443 0 0 0 2.502 2.519l-.943 1.643a.669.669 0 0 0 .242.91zm-2.082-10.334c0-4.445 3.593-8.063 8.01-8.063s8.01 3.618 8.01 8.063c0 4.446-3.593 8.063-8.01 8.063s-8.01-3.617-8.01-8.063zM38.336 22.499c-2.237-1.01-4.873-.003-5.877 2.247-1.004 2.25-.003 4.903 2.232 5.914a4.41 4.41 0 0 0 1.82.396c.533 0 1.067-.098 1.58-.294a4.427 4.427 0 0 0 2.476-2.348 4.474 4.474 0 0 0 .102-3.423 4.434 4.434 0 0 0-2.333-2.492zm1.076 5.392a3.166 3.166 0 0 1-1.77 1.68 3.138 3.138 0 0 1-2.432-.073c-1.598-.723-2.314-2.62-1.596-4.23a3.166 3.166 0 0 1 1.77-1.68 3.151 3.151 0 0 1 2.432.073 3.17 3.17 0 0 1 1.669 1.782 3.196 3.196 0 0 1-.073 2.448z"/>
            <path d="M48.202 26.75a.664.664 0 0 0 .662-.666.664.664 0 0 0-.662-.667H46.31a9.359 9.359 0 0 0-.916-3.436l1.64-.953a.669.669 0 0 0 .242-.91.66.66 0 0 0-.905-.245l-1.632.949a9.443 9.443 0 0 0-2.503-2.519l.943-1.643a.669.669 0 0 0-.243-.91.66.66 0 0 0-.905.243l-.946 1.65a9.204 9.204 0 0 0-3.414-.922v-1.904a.664.664 0 0 0-.662-.666.664.664 0 0 0-.663.666v1.904a9.204 9.204 0 0 0-3.414.923l-.946-1.65a.66.66 0 0 0-.905-.245.669.669 0 0 0-.243.91l.943 1.644a9.443 9.443 0 0 0-2.502 2.519l-1.633-.949a.66.66 0 0 0-.905.244.669.669 0 0 0 .243.911l1.64.953a9.359 9.359 0 0 0-.917 3.436h-1.892a.664.664 0 0 0-.662.667c0 .368.296.666.662.666h1.892a9.358 9.358 0 0 0 .916 3.437l-1.64.953a.669.669 0 0 0 .332 1.244.655.655 0 0 0 .331-.09l1.633-.948a9.443 9.443 0 0 0 2.502 2.518l-.943 1.644a.669.669 0 0 0 .573 1c.23 0 .452-.12.575-.334l.946-1.65a9.205 9.205 0 0 0 3.414.922v1.904c0 .368.297.667.663.667a.664.664 0 0 0 .662-.667v-1.904a9.205 9.205 0 0 0 3.414-.922l.946 1.65a.662.662 0 0 0 .905.244.669.669 0 0 0 .243-.91l-.943-1.644a9.443 9.443 0 0 0 2.503-2.518l1.632.949a.662.662 0 0 0 .905-.244.669.669 0 0 0-.243-.911l-1.639-.953c.51-1.052.83-2.21.916-3.437h1.892zM37.01 34.147c-4.418 0-8.011-3.617-8.011-8.063 0-4.446 3.593-8.063 8.01-8.063 4.418 0 8.011 3.617 8.011 8.063 0 4.446-3.593 8.063-8.01 8.063zM66.974 48.627a.664.664 0 0 0 .662-.666.664.664 0 0 0-.662-.667h-1.892a9.359 9.359 0 0 0-.916-3.436l1.64-.953a.669.669 0 0 0 .242-.91.661.661 0 0 0-.905-.245l-1.633.95a9.443 9.443 0 0 0-2.502-2.52l.943-1.643a.669.669 0 0 0-.242-.91.66.66 0 0 0-.905.244l-.947 1.65a9.205 9.205 0 0 0-3.414-.922v-1.904a.664.664 0 0 0-.663-.667.664.664 0 0 0-.662.667v1.904a9.204 9.204 0 0 0-3.414.922l-.946-1.65a.66.66 0 0 0-.905-.245.669.669 0 0 0-.243.911l.943 1.644a9.442 9.442 0 0 0-2.502 2.518l-1.633-.949a.66.66 0 0 0-.905.245.669.669 0 0 0 .243.91l1.64.953a9.358 9.358 0 0 0-.917 3.436h-1.892a.664.664 0 0 0-.662.667c0 .368.296.666.662.666h1.892a9.36 9.36 0 0 0 .917 3.437l-1.64.953a.669.669 0 0 0 .331 1.244.655.655 0 0 0 .33-.09l1.634-.948a9.443 9.443 0 0 0 2.502 2.518l-.943 1.644a.669.669 0 0 0 .573 1c.23 0 .452-.12.575-.334l.946-1.65a9.203 9.203 0 0 0 3.414.922v1.904c0 .368.296.667.662.667a.664.664 0 0 0 .663-.667v-1.904a9.205 9.205 0 0 0 3.414-.922l.947 1.65a.662.662 0 0 0 .905.244.669.669 0 0 0 .242-.91l-.943-1.644a9.444 9.444 0 0 0 2.502-2.518l1.633.948a.662.662 0 0 0 .905-.244.669.669 0 0 0-.243-.91l-1.64-.953c.511-1.052.831-2.21.917-3.437h1.892zM55.78 56.024c-4.416 0-8.01-3.617-8.01-8.063 0-4.446 3.594-8.063 8.01-8.063 4.418 0 8.011 3.617 8.011 8.063 0 4.446-3.593 8.063-8.01 8.063z"/>
        </g>
        <path stroke="#000" stroke-width="1.6" d="M63.999 9.628a9.97 9.97 0 0 0-3.203 7.338c0 5.51 4.447 9.976 9.931 9.976a9.853 9.853 0 0 0 5.487-1.66A39.474 39.474 0 0 1 79.454 41c0 21.789-17.582 39.452-39.272 39.452C18.492 80.452.909 62.79.909 41c0-21.789 17.583-39.452 39.273-39.452 8.955 0 17.21 3.011 23.817 8.08z"/>
        <path stroke="#000" stroke-linecap="round" stroke-linejoin="round" stroke-width="2.4" d="M67.479 14.627l5.066 5.258 10.91-11.762"/>
    </g>
</svg>
