<svg xmlns="http://www.w3.org/2000/svg" width="84" height="86" viewBox="0 0 84 86">
    <path fill="#000" fill-rule="nonzero" d="M72.02 0c-2.368 0-4.248 1.957-4.248 4.265 0 2.307 1.95 4.265 4.249 4.265.696 0 1.322-.14 1.88-.49L76.2 6.923c.348-.21.557-.56.557-.91v-.488c2.995.839 5.153 3.635 5.153 6.781v15.523a20.099 20.099 0 0 1-6.476 14.753c-1.184-.84-2.787-.91-4.04 0-2.02 1.328-4.319 2.237-6.687 2.586 2.23-3.286 3.483-7.201 3.483-11.187 0-11.047-8.915-19.996-19.92-19.996-2.16 0-4.318.35-6.338 1.049v-2.658c0-3.006 1.95-5.663 4.666-6.642v.35c0 .419.21.769.558.909l2.297 1.118c.627.28 1.255.49 1.882.49 2.368 0 4.248-1.958 4.248-4.266 0-2.307-1.95-4.264-4.248-4.264-.697 0-1.324.14-1.882.49l-2.297 1.118c-.348.21-.558.559-.558.908v.91c-3.97 1.049-6.756 4.684-6.756 8.88v3.495c-2.09.979-4.04 2.378-5.712 4.056-3.76-3.776-8.846-5.943-14.209-5.943-11.005 0-19.92 8.95-19.92 19.996-.07 6.013 2.578 11.677 7.175 15.523l.07.07 12.188 9.648v4.894C19.434 76.14 29.186 86 41.235 86c11.075 0 20.478-8.53 21.662-19.508.487-.14.904-.35 1.253-.63.835-.698 1.254-1.676 1.254-2.725v-8.95c0-1.119.765-2.098 1.88-2.378 2.855-.629 5.572-1.818 8.01-3.426a4.011 4.011 0 0 0 1.533-2.306c.07-.56-.001-1.189-.14-1.748A22.033 22.033 0 0 0 84 27.898V12.375c0-4.335-3.064-8.04-7.243-8.949v-.91c0-.419-.21-.767-.557-.907L73.9.489C73.275.209 72.648 0 72.02 0zm0 2.098c.349 0 .697.07.976.21l1.741.838v2.237l-1.741.84c-.279.14-.627.209-.975.209-1.045 0-2.16-.839-2.16-2.167 0-1.329 1.115-2.167 2.16-2.167zm-20.616.07c1.045 0 2.16.838 2.16 2.166 0 1.329-1.115 2.169-2.16 2.169-.348 0-.697-.07-.975-.21l-1.741-.839V3.216l1.74-.838c.28-.14.628-.21.976-.21zM19.852 16.08c5.084 0 9.96 2.237 13.374 6.083.418.42 1.183.42 1.6 0 3.414-3.846 8.29-6.083 13.375-6.083 9.89 0 17.9 8.04 17.9 17.9 0 4.194-1.533 8.32-4.25 11.536-.835.979-1.81 1.888-2.855 2.727-.07.07-.14.07-.14.14L34.061 68.1l-12.468-9.93v-16.22c4.876-.56 8.706-4.685 8.706-9.719 0-5.383-4.388-9.788-9.75-9.788-5.364 0-9.752 4.405-9.752 9.788 0 5.034 3.831 9.23 8.707 9.72v14.543L8.638 47.964l-.07-.07c-4.178-3.426-6.616-8.46-6.616-13.914.07-9.858 8.08-17.899 17.9-17.899zm.696 8.46c4.249 0 7.662 3.426 7.662 7.691s-3.483 7.691-7.662 7.691c-4.248 0-7.661-3.426-7.661-7.69 0-4.266 3.413-7.692 7.661-7.692zm0 2.098c-3.064 0-5.572 2.517-5.572 5.593 0 3.077 2.508 5.594 5.572 5.594 3.065 0 5.572-2.517 5.572-5.594 0-3.076-2.507-5.593-5.572-5.593zm0 2.097c1.95 0 3.483 1.539 3.483 3.496a3.5 3.5 0 0 1-3.483 3.496c-1.95 0-3.482-1.538-3.482-3.496 0-1.957 1.532-3.496 3.482-3.496zm52.842 15.4c.452-.026.877.149 1.138.542.209.28.348.7.279 1.05-.07.349-.28.697-.627.907-2.23 1.469-4.737 2.587-7.314 3.147-2.09.489-3.552 2.307-3.552 4.405v8.88c0 .419-.208.838-.487 1.048-.348.28-.767.35-1.185.28-.627-.14-1.114-.77-1.114-1.399v-8.74a4.545 4.545 0 0 0-1.462-3.355l1.183-.979.14-.14c.906-.7 1.672-1.468 2.438-2.237 3.552-.21 6.896-1.259 9.751-3.147a1.79 1.79 0 0 1 .812-.262zM57.325 52.16c.696.42 1.044 1.189 1.044 2.028v8.81c0 1.538.975 2.867 2.298 3.356-.975 9.929-9.402 17.55-19.432 17.55-10.865 0-19.711-8.88-19.711-19.788v-3.286l11.84 9.37c.21.14.419.209.628.209.208 0 .487-.07.627-.21L57.325 52.16z"/>
</svg>
