<svg width="20" height="16" viewBox="0 0 20 16" fill="none" xmlns="http://www.w3.org/2000/svg">
<path d="M7.23455 12.5912C7.53735 12.6826 7.86027 12.6169 8.10033 12.414C8.39458 12.1712 8.72605 11.9911 9.11461 11.8683C9.67746 11.6911 10.2975 11.6883 10.8631 11.8626C11.2602 11.9855 11.6003 12.1654 11.8974 12.414C12.066 12.554 12.2774 12.6283 12.4917 12.6283C12.5802 12.6283 12.6716 12.614 12.7603 12.5883C13.0545 12.4998 13.2831 12.2741 13.3717 11.9826C13.7888 10.5998 13.4174 9.10826 12.3974 8.09129C11.3687 7.06266 9.86302 6.79419 8.56296 7.40849C8.45444 7.45992 8.40866 7.58567 8.46009 7.69419C8.51152 7.79994 8.63727 7.84559 8.74579 7.79705C9.88005 7.25986 11.1944 7.49425 12.0943 8.39698C13.0001 9.30549 13.3343 10.6313 12.9601 11.8627C12.9116 12.0169 12.7944 12.1341 12.6373 12.1827C12.4745 12.2312 12.3002 12.197 12.1715 12.0884C11.8286 11.8027 11.4429 11.5969 10.9886 11.457C10.34 11.2571 9.62865 11.2598 8.98296 11.4626C8.54008 11.6026 8.16005 11.8083 7.82294 12.0884C7.69154 12.1969 7.51725 12.2341 7.35441 12.1827C7.19722 12.1341 7.08016 12.0198 7.03162 11.8655C6.66017 10.6341 6.99163 9.30845 7.8974 8.39987C7.98026 8.317 7.98026 8.17981 7.8974 8.09707C7.81453 8.0142 7.67733 8.0142 7.5946 8.09707C6.57466 9.11701 6.20321 10.6085 6.62029 11.9884C6.71447 12.277 6.94295 12.5027 7.23443 12.5912L7.23455 12.5912Z" fill="#F7F7F7"/>
<path d="M12.1 2.82257C11.3658 2.66262 10.58 3.36253 10.3572 4.38549C10.1314 5.42556 10.5429 6.36552 11.2915 6.53126C11.3658 6.54836 11.4401 6.55415 11.5143 6.55415C12.1885 6.55415 12.8286 5.90553 13.0343 4.96847C13.2572 3.94261 12.8372 2.98264 12.1 2.82256L12.1 2.82257ZM12.6172 4.87403C12.4486 5.65114 11.8857 6.21689 11.3858 6.10836C10.8887 5.99984 10.6087 5.25127 10.7772 4.47402C10.9315 3.75977 11.42 3.22547 11.8858 3.22547C11.9286 3.22547 11.9686 3.23113 12.0115 3.23981C12.5058 3.34833 12.7857 4.0969 12.6172 4.87402L12.6172 4.87403Z" fill="#F7F7F7"/>
<path d="M12.7542 7.77973C12.8227 8.18264 13.0314 8.48253 13.34 8.62537C13.4685 8.68535 13.6028 8.71114 13.74 8.71114C14.2685 8.71114 14.8342 8.29113 15.1486 7.61399C15.3314 7.21964 15.3972 6.79963 15.3314 6.42831C15.2629 6.02541 15.0543 5.72551 14.7457 5.58267C14.4371 5.43982 14.0743 5.47415 13.7229 5.68264C13.3972 5.87403 13.12 6.19694 12.9372 6.59115C12.7571 6.9855 12.6913 7.40551 12.7542 7.77972L12.7542 7.77973ZM13.3285 6.77125C13.4743 6.45701 13.6942 6.19984 13.9428 6.05121C14.0827 5.96834 14.2228 5.92546 14.3513 5.92546C14.4284 5.92546 14.5 5.93979 14.5685 5.97123C14.7457 6.0541 14.8686 6.23983 14.9114 6.49974C14.96 6.78833 14.9058 7.1198 14.76 7.43404C14.4772 8.04831 13.9086 8.41124 13.5201 8.23405C13.3429 8.15119 13.22 7.96545 13.1771 7.70555C13.1286 7.41985 13.1828 7.08549 13.3285 6.77125H13.3285Z" fill="#F7F7F7"/>
<path d="M8.48861 6.55141C8.56293 6.55141 8.63725 6.54286 8.70868 6.52852C9.08013 6.44855 9.38292 6.16852 9.55432 5.74561C9.71716 5.3485 9.7486 4.86562 9.64284 4.38564C9.41713 3.34557 8.65146 2.65988 7.90287 2.82272C7.53142 2.9027 7.22863 3.18273 7.05723 3.60563C6.89439 4.00274 6.86295 4.48562 6.9687 4.9656C7.07446 5.44558 7.30294 5.87411 7.61442 6.16562C7.88013 6.42001 8.18583 6.55142 8.48862 6.55142L8.48861 6.55141ZM7.45157 3.7657C7.56877 3.47711 7.76305 3.28862 7.99153 3.23996C8.03151 3.23141 8.07439 3.22562 8.11728 3.22562C8.58305 3.22562 9.06869 3.75992 9.22298 4.47417C9.30874 4.87128 9.28585 5.26563 9.15721 5.58276C9.04001 5.87136 8.84573 6.05985 8.61726 6.10851C8.38864 6.15705 8.13438 6.06852 7.90577 5.85425C7.65717 5.61998 7.47145 5.27139 7.38582 4.87428C7.29729 4.47717 7.32294 4.08282 7.45159 3.76568L7.45157 3.7657Z" fill="#F7F7F7"/>
<path d="M5.25159 5.58268C4.943 5.72553 4.7344 6.02555 4.66584 6.42832C4.60297 6.79978 4.66873 7.22255 4.84868 7.614C5.16292 8.29114 5.72867 8.71115 6.25731 8.71115C6.3945 8.71115 6.5288 8.6826 6.65731 8.62539C7.27738 8.33969 7.45443 7.44537 7.06022 6.59393C6.66587 5.73987 5.87164 5.29697 5.25158 5.58268L5.25159 5.58268ZM6.48013 8.23406C6.09158 8.41401 5.52293 8.04833 5.24014 7.43405C5.0944 7.11981 5.04021 6.78543 5.08874 6.49974C5.13162 6.24259 5.25448 6.05398 5.43167 5.97124C5.49744 5.9398 5.57163 5.92546 5.64595 5.92546C6.00595 5.92546 6.43741 6.2626 6.67167 6.77111C6.95448 7.38551 6.86885 8.05413 6.48016 8.23405L6.48013 8.23406Z" fill="#F7F7F7"/>
<path d="M14.0799 0C12.437 0 10.9371 0.788565 10 2.12564C9.0628 0.788565 7.56289 0 5.92013 0C3.16877 0 0.928711 2.23706 0.928711 4.99142C0.928711 10.6944 9.52588 15.7599 9.89157 15.9744C9.9259 15.9915 9.96313 16 10.0002 16C10.0373 16 10.0745 15.9915 10.1087 15.9715C10.1316 15.9571 10.6945 15.6314 11.5374 15.0486C11.6346 14.9828 11.6602 14.8487 11.5917 14.7515C11.5232 14.6543 11.3918 14.6286 11.2946 14.6971C10.6745 15.1228 10.2031 15.4172 10.0002 15.54C8.99739 14.9286 1.35725 10.1145 1.35725 4.99147C1.35725 2.47714 3.40292 0.428716 5.92001 0.428716C7.52293 0.428716 8.97995 1.25163 9.81704 2.62867C9.85702 2.69155 9.92555 2.73153 9.99987 2.73153C10.0742 2.73153 10.1427 2.69155 10.1827 2.62867C11.0198 1.25149 12.477 0.428716 14.0797 0.428716C16.5941 0.428716 18.6425 2.47438 18.6425 4.99147C18.6425 8.73158 14.5653 12.3 12.1337 14.0971C12.0394 14.1685 12.0194 14.3028 12.088 14.3971C12.1594 14.4915 12.2908 14.5115 12.388 14.4429C14.8823 12.6001 19.0708 8.92014 19.0708 4.99449C19.0708 2.23707 16.8308 3.905e-05 14.0794 3.905e-05L14.0799 0Z" fill="#F7F7F7"/>
</svg>
