<svg xmlns="http://www.w3.org/2000/svg" width="37" height="32" viewBox="0 0 37 32">
    <g fill="none" fill-rule="evenodd">
        <path stroke="#000" stroke-linecap="round" stroke-linejoin="round" d="M4.093 17.811v1.962c0 8.233 6.674 11.993 14.908 11.993 8.232 0 14.906-3.76 14.906-11.993v-1.962"/>
        <g fill="#000" fill-rule="nonzero" transform="translate(12 15)">
            <circle cx="11.293" cy="2.638" r="1.877"/>
            <circle cx="2.706" cy="2.638" r="1.877"/>
        </g>
        <path fill="#000" fill-rule="nonzero" stroke="#000" stroke-linecap="round" stroke-linejoin="round" stroke-width="2" d="M21.056 22.79a.805.805 0 0 0-.806-.805h-2.5a.805.805 0 0 0-.806.805L19 24.242l2.056-1.452z"/>
        <path stroke="#000" stroke-linecap="round" stroke-linejoin="round" d="M9.67 7.252v6.429a4.375 4.375 0 0 1-8.75 0v-3.75c0-2.416 1.788-5.305 4.375-6.375 0 0 5.463-2.688 14.114-2.688s13.165 2.688 13.165 2.688c2.759 1.32 4.375 3.959 4.375 6.375v3.75a4.375 4.375 0 0 1-8.75 0V7.252"/>
    </g>
</svg>
