<svg xmlns="http://www.w3.org/2000/svg" width="83" height="52" viewBox="0 0 83 52">
    <g fill="#000" fill-rule="nonzero">
        <path d="M53.63 31.05l1.916-3.359.091-.182a4.898 4.898 0 0 0-2.553-6.355 4.483 4.483 0 0 0-3.74 0c-1.186.454-2.098 1.362-2.645 2.542l-2.28 4.449-.456-4.449a4.943 4.943 0 0 0-1.642-3.359c-1.003-.817-2.19-1.271-3.466-1.18a4.983 4.983 0 0 0-3.375 1.634c-.82.999-1.277 2.179-1.185 3.54l.73 6.9h-.183L7.205 15.617l.639-6.446c.182 0 .274-.091.456-.091a4.967 4.967 0 0 0 2.554-2.36c1.003-2.27 0-4.903-2.28-5.993C7.479.272 6.202.182 5.108.636a4.967 4.967 0 0 0-2.554 2.36c-1.003 2.27 0 4.903 2.28 5.992.091 0 .182.091.274.091L.638 51.841h10.307l1.277-12.166 1.915 1.271L12.86 51.75h9.76l.547-4.902 7.206 4.72c.09.092.182.092.273.182h.091c.092 0 .183.091.365.091l16.691-.09c.73 0 1.369-.636 1.369-1.363 2.553 1.09 4.925 1.18 5.107 1.18h.456c3.922 0 7.57-1.452 10.398-4.266 2.919-2.815 4.56-6.628 4.47-10.714V30.96l-15.962.091zm13.226 5.538v.908c-1.824-.363-3.283-1.906-3.648-3.722h3.648v2.814zm-17.694-11.62l.09-.092c.183-.544.64-.907 1.186-1.089a2.542 2.542 0 0 1 1.642 0 2.233 2.233 0 0 1 1.186 2.724l-2.736 4.63h-4.47l3.102-6.174zm-12.131-.909c0-.544.182-1.09.547-1.543.365-.454.912-.636 1.46-.726.547 0 1.094.181 1.55.544.456.364.638.908.73 1.544l.73 7.263h-4.196l-.821-7.082zM5.108 4.176c.182-.454.547-.726 1.003-.908.182-.09.456-.09.638-.09.274 0 .456.09.73.181.912.363 1.277 1.453.912 2.36-.182.455-.547.727-1.003.909a1.786 1.786 0 0 1-1.368 0c-.912-.545-1.368-1.635-.912-2.452zm6.476 28.145c-.73-.09-1.46.454-1.46 1.18L8.482 49.028H3.648L6.841 18.52 33.018 33.32v8.716H31.74c-.73 0-1.368.635-1.368 1.362 0 .726.638 1.361 1.368 1.361h13.043l.82 4.268-14.137.09-18.971-12.529.273-2.814c.091-.726-.456-1.362-1.185-1.453zm8.573 16.706H15.87l.73-6.446 4.013 2.632-.456 3.814zm43.05-3.632c-2.37 2.36-5.563 3.54-8.847 3.45 0 0-3.648-.182-6.202-2.27-.091-.09-.182-.09-.182-.181l-.821-4.358h-1.186v-.908c0-.726-.547-1.362-1.368-1.362-.73 0-1.368.545-1.368 1.362v.999h-7.297v-8.172l24.627-.181c.364 3.178 2.736 5.81 5.928 6.355-.73 1.998-1.824 3.723-3.283 5.266z"/>
        <ellipse cx="50.332" cy="38.522" rx="2.007" ry="1.997" transform="rotate(-83.517 50.332 38.522)"/>
        <ellipse cx="76.98" cy="45.667" rx="6.02" ry="5.992"/>
    </g>
</svg>
