<svg xmlns="http://www.w3.org/2000/svg" width="58" height="58" viewBox="0 0 58 58">
    <g fill="#000" fill-rule="nonzero">
        <path d="M54.778 22.636c2.255-2.82 3.303-6.283 2.9-9.908l-.564-4.914-12.647 1.45 1.127-2.336.081-.161c.725-2.256-.483-4.673-2.739-5.398-2.255-.725-4.592.484-5.397 2.659l-1.692 4.028-.725-3.948C34.8 1.772 32.625.161 30.29.483c-2.336.323-3.947 2.498-3.625 4.914l1.45 7.492 2.82 17.078c-7.331.483-12.487 4.027-15.95 8.377-.242.242-.403.484-.645.725-.08.162-.161.242-.242.403-2.82 3.867-4.51 8.217-5.478 11.44l-2.175-12.81c1.29-.644 2.256-2.013 2.256-3.544 0-2.175-1.772-4.027-4.028-4.027a3.989 3.989 0 0 0-4.028 4.027c0 2.014 1.45 3.625 3.384 3.948L7.25 57.275h.08v.08h37.217l-2.416-13.613h3.705l2.256 13.614h8.78l-5.316-31.9c1.208-.725 2.255-1.692 3.222-2.82zM4.51 36.17A1.616 1.616 0 0 1 2.9 34.56c0-.887.725-1.612 1.611-1.612s1.611.725 1.611 1.611-.725 1.611-1.61 1.611zM55.02 10.472l.323 2.578c0 .242 0 .483.08.806-.805-.081-1.53-.403-2.175-.887a4.535 4.535 0 0 1-1.37-2.094l3.142-.403zM39.794 4.914v-.08c.323-.967 1.37-1.531 2.337-1.209.966.322 1.45 1.37 1.208 2.256l-1.692 3.625-4.028.483 2.175-5.075zM29 4.994c-.161-1.047.564-1.933 1.611-2.094 1.047-.161 1.933.564 2.095 1.692l1.127 5.88-3.705.403L29 4.995zM9.989 54.858c.403-2.094 1.45-6.444 3.786-10.714.806-1.45 1.611-2.738 2.497-3.866.967-1.047 2.256-1.692 3.706-1.692 2.739 0 5.075 2.256 5.075 5.075 0 2.578-2.014 4.833-4.592 4.995h-.08c-.645 0-1.209.563-1.209 1.208 0 .644.564 1.208 1.209 1.208h7.652l.725 3.706H9.988v.08zm21.105 0l-1.127-6.122h-4.43c1.207-1.37 2.013-3.142 2.013-5.075 0-4.028-3.142-7.25-7.17-7.411 3.142-2.336 6.767-3.706 10.876-3.867l3.705 22.475h-3.867zm22.878 0h-3.866L47.85 41.244h-8.7l2.417 13.614h-4.27l-3.866-23.764c0-.16 0-.241-.081-.322l-2.82-17.4 18.85-2.175c.323 1.45 1.128 2.74 2.337 3.706 1.047.805 2.255 1.289 3.464 1.37-.323 1.771-1.128 3.463-2.256 4.913-1.853 2.256-4.511 3.625-7.492 3.867-.322 0-7.572.483-8.136-5.961a1.302 1.302 0 0 0-1.289-1.128 1.302 1.302 0 0 0-1.127 1.289c.644 6.525 6.363 8.136 9.988 8.136h.806c1.289-.08 2.497-.403 3.625-.806l4.672 28.275z"/>
        <circle cx="40.951" cy="16.281" r="1.772" transform="rotate(-89.719 40.951 16.28)"/>
    </g>
</svg>
