<svg xmlns="http://www.w3.org/2000/svg" width="62" height="81" viewBox="0 0 62 81">
    <g fill="#45515D" fill-rule="nonzero">
        <path d="M5.096 47.837l19.5 29.57a7.5 7.5 0 0 0 12.52 0l19.5-29.59c8.486-12.886 6.147-30.06-5.476-40.207-11.623-10.147-28.955-10.147-40.578 0C-1.06 17.758-3.4 34.931 5.086 47.817l.01.02zm8.9-33.85c9.318-9.316 24.423-9.316 33.74 0 7.978 8.023 9.25 20.536 3.05 30l-19.51 29.59a.5.5 0 0 1-.83 0l-19.51-29.59c-6.195-9.462-4.923-21.968 3.05-29.99l.01-.01z"/>
        <path d="M30.83 46.66A15.83 15.83 0 1 0 15 30.86c.028 8.727 7.104 15.79 15.83 15.8zm0-24.67A8.83 8.83 0 1 1 22 30.82a8.84 8.84 0 0 1 8.83-8.79v-.04z"/>
    </g>
</svg>
