<svg xmlns="http://www.w3.org/2000/svg" width="40" height="40" viewBox="0 0 40 40">
    <path fill="#45515D" fill-rule="nonzero" d="M12.137 35.666s-6.368-10.188 7.678-16.6c0 0 12.16-4.963 16.131 10.22 0 0 .415 5.191-5.34 3.9 0 0-3.926-2.996-7.714-.813 0 0-2.805 1.812-3.971 5.543 0 0-2.959 4.836-6.784-2.25zM16.08 9.543c.373 3.587.27 6.907-2.533 8.014-2.803 1.106-6.215-.688-7.62-4.007-1.404-3.32-.27-6.907 2.533-8.014 2.803-1.107 7.156-.446 7.62 4.007zm12.665-3.274c1 3.734-.565 7.398-3.496 8.184-2.93.785-6.054-2.06-7.119-5.34-1.195-3.677.565-7.398 3.496-8.183 2.93-.786 6.118 1.605 7.12 5.34zm10.175 7.064c.773 2.883-.862 4.915-2.947 6.386-2.024 1.426-4.974-1.173-5.746-4.056-.773-2.883.701-5.33 2.948-6.386 2.461-1.156 4.973 1.174 5.745 4.056zM.282 23.686C-.49 20.803.52 17.53 3.23 17.301c2.473-.21 4.973 1.173 5.746 4.056.772 2.883-.483 6.61-2.948 6.385-2.542-.23-4.973-1.173-5.746-4.056z"/>
</svg>
