<svg width="18" height="16" viewBox="0 0 18 16" fill="none" xmlns="http://www.w3.org/2000/svg">
<path d="M9.38097 1.56199C10.2499 1.73896 10.9046 2.50823 10.9046 3.42869C10.9046 4.34942 10.2496 5.11845 9.38097 5.29519V15.6188C9.38097 15.8293 9.21038 15.9999 8.99992 15.9999C8.78946 15.9999 8.61886 15.8293 8.61886 15.6188V5.29519C7.74996 5.11847 7.09521 4.34922 7.09521 3.42869C7.09521 2.50768 7.75023 1.73892 8.61886 1.56219V0.381054C8.61886 0.170595 8.78946 0 8.99992 0C9.21038 0 9.38097 0.170595 9.38097 0.381054V1.56199ZM7.85705 3.42869C7.85705 4.05872 8.36937 4.57159 8.99996 4.57159C9.62999 4.57159 10.1429 4.05927 10.1429 3.42869C10.1429 2.79865 9.63054 2.28578 8.99996 2.28578C8.36992 2.28578 7.85705 2.7981 7.85705 3.42869Z" fill="#F7F7F7"/>
<path d="M2.52404 10.7046C3.39294 10.8813 4.04769 11.6506 4.04769 12.5711C4.04769 13.4921 3.39267 14.2609 2.52404 14.4376V15.6187C2.52404 15.8292 2.35345 15.9998 2.14299 15.9998C1.93253 15.9998 1.7622 15.8292 1.7622 15.6187V14.4379C0.893031 14.2609 0.238281 13.4916 0.238281 12.5712C0.238281 11.6504 0.893562 10.8814 1.7622 10.7047V0.381055C1.7622 0.170596 1.93253 0 2.14299 0C2.35345 0 2.52404 0.170596 2.52404 0.381055V10.7046ZM1.00012 12.5711C1.00012 13.2011 1.51244 13.714 2.14303 13.714C2.77307 13.714 3.28593 13.2017 3.28593 12.5711C3.28593 11.9411 2.77362 11.4282 2.14303 11.4282C1.51299 11.4282 1.00012 11.9405 1.00012 12.5711Z" fill="#F7F7F7"/>
<path d="M16.2381 7.27597C17.1073 7.45294 17.762 8.22221 17.762 9.14267C17.762 10.0634 17.1068 10.8324 16.2381 11.0092V15.6187C16.2381 15.8292 16.0678 15.9998 15.8573 15.9998C15.6469 15.9998 15.4763 15.8292 15.4763 15.6187V11.0092C14.6074 10.8325 13.9526 10.0632 13.9526 9.14267C13.9526 8.22166 14.6077 7.4529 15.4763 7.27617V0.381055C15.4763 0.170596 15.6469 0 15.8573 0C16.0678 0 16.2381 0.170596 16.2381 0.381055V7.27597ZM14.7145 9.14267C14.7145 9.77271 15.2268 10.2856 15.8574 10.2856C16.4874 10.2856 17.0003 9.77326 17.0003 9.14267C17.0003 8.51263 16.488 7.99976 15.8574 7.99976C15.2273 7.99976 14.7145 8.51208 14.7145 9.14267Z" fill="#F7F7F7"/>
</svg>
