<svg width="38" height="38" viewBox="0 0 38 38" fill="none" xmlns="http://www.w3.org/2000/svg">
<path d="M18.9998 33.6666C10.9148 33.6666 4.33317 27.085 4.33317 19C4.33317 10.915 10.9148 4.33329 18.9998 4.33329C27.0848 4.33329 33.6665 10.915 33.6665 19C33.6665 27.085 27.0848 33.6666 18.9998 33.6666ZM18.9998 0.666626C8.8615 0.666626 0.666504 8.86163 0.666504 19C0.666504 29.1383 8.8615 37.3333 18.9998 37.3333C29.1382 37.3333 37.3332 29.1383 37.3332 19C37.3332 8.86163 29.1382 0.666626 18.9998 0.666626ZM23.7482 11.6666L18.9998 16.415L14.2515 11.6666L11.6665 14.2516L16.4148 19L11.6665 23.7483L14.2515 26.3333L18.9998 21.585L23.7482 26.3333L26.3332 23.7483L21.5848 19L26.3332 14.2516L23.7482 11.6666Z" fill="#546067"/>
</svg>
