<svg xmlns="http://www.w3.org/2000/svg" xmlns:xlink="http://www.w3.org/1999/xlink" width="141" height="33" viewBox="0 0 141 33">
    <defs>
        <path id="a" d="M.178.063h16.714V27.72H.178z"/>
        <path id="c" d="M.008.054H14.22V33H.008z"/>
        <path id="e" d="M0 33h143V0H0z"/>
    </defs>
    <g fill="none" fill-rule="evenodd">
        <path fill="#D45224" d="M34.955 5.77h5.699c2.48 0 4.39 1.416 4.39 4.893 0 3.76-1.273 5.984-4.558 5.984h-5.53V5.77zM31 31h3.955V20.933h5.263c6.167 0 8.782-4.084 8.782-10.472C49 3.831 45.883 1 41.19 1H31v30z"/>
        <g transform="translate(49 5)">
            <mask id="b" fill="#fff">
                <use xlink:href="#a"/>
            </mask>
            <path fill="#D45224" d="M16.892 12.17C16.892 5.247 14.733.064 9.14.064 3.383.063.178 5.671.178 13.53c0 7.987 2.518 14.19 8.962 14.19 3.598 0 5.888-2.804 6.672-4.418v-5.353l-.13.085c-1.145 3.059-3.14 5.693-6.28 5.693-3.926 0-5.757-3.527-5.757-8.412h13.247V12.17zm-13.247-.849c.294-4.546 2.257-6.755 5.364-6.755 3.402 0 5.2 2.337 5.2 6.755H3.646z" mask="url(#b)"/>
        </g>
        <g transform="translate(66)">
            <mask id="d" fill="#fff">
                <use xlink:href="#c"/>
            </mask>
            <path fill="#D45224" d="M14.22 7.036H7.456L7.66.054H6.191C5.405 4.026 3.321 7.33.008 8.082v3.135H3.39v14.425C3.39 29.655 4.688 33 9.164 33c1.81 0 4.134-1.505 4.885-2.383v-4.139c-.751 1.254-1.982 2.341-3.826 2.341-2.563 0-3.007-1.714-3.007-4.348V11.217h7.004v-4.18z" mask="url(#d)"/>
        </g>
        <mask id="f" fill="#fff">
            <use xlink:href="#e"/>
        </mask>
        <path fill="#D45224" d="M81 32h4V0h-4zM100 12.389C100 7.476 97.822 5 93.871 5c-3.173 0-4.946 1.557-6.844 3.754v4.753c1.742-2.516 3.516-4.034 6.222-4.034 1.587 0 3.39.759 3.39 3.315 0 2.316-1.243 2.795-2.799 3.435C90.17 17.82 86 18.219 86 24.57c0 3.994 1.96 6.43 5.04 6.43 2.364 0 4.418-1.917 5.414-4.593h.062v4.034H100V12.389zm-3.484 8.386c0 3.196-1.68 6.71-4.356 6.71-1.275 0-2.676-1.078-2.676-3.115 0-4.393 4.17-4.393 6.97-6.35h.062v2.755zM104 31h3.726V17.53c0-2.775 1.064-7.958 5.356-7.958 3.693 0 4.192 3.305 4.192 5.754V31H121V13.082C121 9.162 119.37 5 114.58 5c-3.228 0-5.39 1.674-6.987 5.714h-.067V5.572H104V31zM136.46 32.414H140V0h-3.74v9.59h-.067c-1.336-2.764-3.84-3.853-5.777-3.853-4.876 0-8.416 3.811-8.416 13.82C122 26.09 123.636 33 129.714 33c3.373 0 5.811-2.806 6.68-6.491h.066v5.905zm-.067-13.82c0 4.858-1.101 10.218-5.91 10.218-3.941 0-4.943-4.565-4.943-8.795 0-4.899 1.202-9.59 5.477-9.59 3.773 0 5.376 3.644 5.376 8.167zM15.737 21.575c0-1.601-.605-3.06-1.599-4.163a9.643 9.643 0 0 1-.514-.508 6.22 6.22 0 0 0-10.327 4.671l-.006 6.22h6.226a6.22 6.22 0 0 0 6.22-6.22m.125-6.986c.178.162.35.332.514.508a6.22 6.22 0 0 0 10.328-4.672l.005-6.219h-6.226a6.22 6.22 0 0 0-4.62 10.383m3.068 6.967c0 1.94-.585 3.743-1.588 5.243a6.194 6.194 0 0 0 3.232.905l6.219.005.001-6.225a6.187 6.187 0 0 0-.922-3.262 9.402 9.402 0 0 1-5.36 1.666c-.601 0-1.19-.056-1.76-.163.117.592.178 1.205.178 1.83m-15.726-11.3v.262c0 .27.017.534.05.794.832-.062 1.196-.483 1.196-.483s.392.508 1.063.508c.67 0 1.16-.508 1.16-.508s.409.508 1.063.508c.654 0 1.13-.54 1.13-.54s.458.59 1.177.59c.638 0 .967-.453 1.033-.555a10.265 10.265 0 0 1 .01-.961c-.035.046-.365.454-1.043.454-.72 0-1.178-.473-1.178-.473s-.475.424-1.129.424a1.632 1.632 0 0 1-1.062-.393s-.49.393-1.161.393a1.58 1.58 0 0 1-1.063-.393s-.378.336-1.246.374m0-2.09v1.058c.868-.049 1.246-.487 1.246-.487s.392.508 1.063.508c.67 0 1.16-.508 1.16-.508s.409.508 1.063.508c.654 0 1.13-.54 1.13-.54s.458.59 1.177.59c.718 0 1.046-.574 1.046-.574s.041.052.114.124c.05-.288.111-.57.186-.85-.188-.106-.3-.22-.3-.22s-.328.46-1.046.46c-.72 0-1.178-.475-1.178-.475s-.475.425-1.129.425a1.632 1.632 0 0 1-1.062-.393s-.49.393-1.161.393-1.063-.393-1.063-.393-.378.335-1.246.373m9.452-2.964a6.193 6.193 0 0 0-3.232-.904L3.206 4.29v2.843c.867-.05 1.245-.487 1.245-.487s.392.508 1.063.508c.67 0 1.16-.508 1.16-.508s.409.508 1.063.508c.654 0 1.13-.54 1.13-.54s.458.59 1.177.59c.718 0 1.046-.574 1.046-.574s.237.304.596.45a9.426 9.426 0 0 1 .971-1.88M1.812 16.051A9.4 9.4 0 0 1 0 10.487l.002-9.453 9.442.009c2.054 0 3.955.656 5.505 1.77A9.403 9.403 0 0 1 20.514 1l9.452.002-.009 9.442a9.403 9.403 0 0 1-1.77 5.506A9.4 9.4 0 0 1 30 21.514l-.002 9.452-9.442-.009a9.403 9.403 0 0 1-5.505-1.77A9.402 9.402 0 0 1 9.487 31l-9.453-.002.009-9.442c0-2.054.655-3.955 1.77-5.505" mask="url(#f)"/>
        <path fill="#D45224" d="M20 7.5a2.5 2.5 0 1 1 5 0 2.5 2.5 0 0 1-5 0M4 24.5a2.5 2.5 0 1 1 5 0 2.5 2.5 0 0 1-5 0M5 20.5a.5.5 0 1 1 1 0 .5.5 0 0 1-1 0M8 21.5a.5.5 0 1 1 1 0 .5.5 0 0 1-1 0M9 22.5a.5.5 0 1 1 1 0 .5.5 0 0 1-1 0M10 25.5a.5.5 0 1 1 1 0 .5.5 0 0 1-1 0M140.395 30.534h.105l.158.257h.093l-.169-.26c.084-.009.152-.053.152-.158 0-.11-.067-.164-.203-.164h-.222v.582h.086v-.257zm0-.255h.12c.065 0 .133.015.133.09 0 .088-.075.094-.154.094h-.099v-.184zm.605.22a.5.5 0 1 0-.998 0 .5.5 0 0 0 .998 0zm-.094 0a.41.41 0 0 1-.406.423.41.41 0 0 1-.406-.422.41.41 0 0 1 .406-.422.41.41 0 0 1 .406.422z" mask="url(#f)"/>
    </g>
</svg>
