<svg xmlns="http://www.w3.org/2000/svg" xmlns:xlink="http://www.w3.org/1999/xlink" width="63" height="78" viewBox="0 0 63 78">
    <defs>
        <path id="a" d="M0 77.737h62.737V0H0z"/>
    </defs>
    <g fill="none" fill-rule="evenodd">
        <path fill="#D0541F" d="M2.64 65.258h2.848c1.239 0 2.194.685 2.194 2.367 0 1.819-.637 2.895-2.278 2.895H2.64v-5.262zM.663 77.463H2.64v-4.87h2.63c3.081 0 4.388-1.976 4.388-5.066 0-3.207-1.558-4.576-3.903-4.576H.663v14.512zM18.6 70.578c0-3.188-1.106-5.574-3.97-5.574-2.948 0-4.59 2.582-4.59 6.2 0 3.677 1.29 6.532 4.59 6.532 1.842 0 3.014-1.29 3.416-2.033v-2.465l-.067.04c-.586 1.407-1.608 2.62-3.215 2.62-2.01 0-2.949-1.623-2.949-3.873H18.6v-1.447zm-6.785-.391c.151-2.093 1.156-3.11 2.747-3.11 1.742 0 2.664 1.076 2.664 3.11h-5.41zM25.465 65.591H22.15l.1-3.266h-.72c-.385 1.857-1.407 3.403-3.032 3.755v1.467h1.659v6.748c0 1.877.636 3.441 2.83 3.441.888 0 2.027-.703 2.396-1.114v-1.937c-.369.587-.972 1.096-1.876 1.096-1.257 0-1.474-.802-1.474-2.034v-6.2h3.433V65.59z"/>
        <mask id="b" fill="#fff">
            <use xlink:href="#a"/>
        </mask>
        <path fill="#D0541F" d="M25.916 77.463h1.876V62.325h-1.876zM36.014 68.623c0-2.406-1.172-3.619-3.3-3.619-1.708 0-2.663.763-3.684 1.839v2.327c.937-1.232 1.892-1.975 3.35-1.975.854 0 1.825.371 1.825 1.623 0 1.134-.67 1.37-1.507 1.682-1.977.782-4.221.978-4.221 4.088 0 1.956 1.055 3.149 2.713 3.149 1.273 0 2.38-.94 2.915-2.25h.033v1.976h1.876v-8.84zm-1.876 4.106c0 1.566-.904 3.287-2.344 3.287-.687 0-1.442-.529-1.442-1.526 0-2.152 2.245-2.152 3.753-3.11h.033v1.35zM37.453 77.463h1.877v-6.455c0-1.33.535-3.813 2.696-3.813 1.86 0 2.11 1.584 2.11 2.757v7.51h1.877v-8.585c0-1.878-.821-3.873-3.233-3.873-1.625 0-2.714.802-3.518 2.738h-.033v-2.464h-1.776v12.185zM54.239 77.463h1.775V62.325h-1.876v4.478h-.033a3.3 3.3 0 0 0-2.898-1.799c-2.446 0-4.221 1.78-4.221 6.454 0 3.052.82 6.278 3.87 6.278 1.691 0 2.914-1.31 3.349-3.03h.034v2.757zm-.034-6.455c0 2.27-.552 4.773-2.965 4.773-1.976 0-2.479-2.132-2.479-4.108 0-2.288.603-4.478 2.747-4.478 1.893 0 2.697 1.702 2.697 3.813zM29.383 40.094c0-3.12-1.13-5.964-2.985-8.113a18.404 18.404 0 0 1-.96-.99c-2.046-1.88-4.73-3.018-7.668-3.018-6.416 0-11.615 5.426-11.615 12.121l-.01 12.119 11.625.003c6.413 0 11.613-5.428 11.613-12.122m.234-13.614c.331.316.652.647.96.99 2.045 1.879 4.73 3.018 7.668 3.018 6.415 0 11.615-5.428 11.615-12.122l.01-12.118-11.625-.003c-6.414 0-11.614 5.427-11.614 12.12 0 3.12 1.13 5.966 2.986 8.115m5.729 13.576c0 3.78-1.091 7.294-2.964 10.217a11.206 11.206 0 0 0 6.035 1.763l11.61.011c0 .001.004-8.723.004-12.132 0-2.331-.63-4.509-1.724-6.355-2.843 2.047-6.29 3.246-10.005 3.246-1.124 0-2.222-.11-3.287-.318.218 1.155.33 2.348.33 3.568M5.984 18.036v.509c0 .525.032 1.04.095 1.548 1.554-.122 2.233-.943 2.233-.943s.731.99 1.984.99c1.252 0 2.167-.99 2.167-.99s.763.99 1.984.99c1.222 0 2.108-1.051 2.108-1.051s.857 1.148 2.199 1.148c1.19 0 1.807-.882 1.93-1.08a19.374 19.374 0 0 1 .017-1.874c-.064.09-.681.887-1.947.887-1.342 0-2.199-.923-2.199-.923s-.886.827-2.108.827c-1.221 0-1.984-.766-1.984-.766s-.915.766-2.167.766c-1.253 0-1.984-.766-1.984-.766s-.707.654-2.328.728m.002-4.074l-.002 2.064c1.621-.095 2.328-.95 2.328-.95s.731.991 1.984.991c1.252 0 2.167-.99 2.167-.99s.763.99 1.984.99c1.222 0 2.108-1.052 2.108-1.052s.857 1.147 2.199 1.147c1.341 0 1.953-1.117 1.953-1.117s.077.102.214.243c.091-.562.207-1.114.346-1.656-.35-.208-.56-.43-.56-.43s-.612.895-1.953.895c-1.342 0-2.199-.924-2.199-.924s-.886.828-2.108.828c-1.221 0-1.984-.766-1.984-.766s-.915.766-2.167.766c-1.253 0-1.984-.766-1.984-.766s-.707.654-2.326.727m17.648-5.775a11.204 11.204 0 0 0-6.035-1.763L5.986 6.413l-.001 5.54c1.62-.096 2.326-.95 2.326-.95s.731.99 1.984.99c1.252 0 2.167-.99 2.167-.99s.763.99 1.984.99c1.222 0 2.108-1.05 2.108-1.05s.857 1.147 2.199 1.147c1.341 0 1.953-1.118 1.953-1.118s.443.593 1.113.876a18.673 18.673 0 0 1 1.814-3.661M3.383 29.329C1.255 26.289 0 22.54 0 18.487 0 13.31.004.065.004.067l17.63.016c3.835 0 7.384 1.278 10.279 3.449C30.826 1.312 34.418 0 38.302 0c4.96 0 17.65.004 17.649.004-.003 0-.017 17.617-.017 18.4 0 4.002-1.224 7.707-3.304 10.727 2.128 3.04 3.384 6.789 3.384 10.843 0 5.176-.004 18.421-.004 18.419l-17.629-.016c-3.836 0-7.385-1.278-10.28-3.449-2.913 2.22-6.503 3.532-10.388 3.532-4.96 0-17.651-.004-17.65-.004.002 0 .016-17.617.016-18.4 0-4.002 1.225-7.707 3.304-10.727" mask="url(#b)"/>
        <path fill="#D0541F" d="M37.693 13.459c0-3.088 2.398-5.592 5.357-5.592s5.358 2.504 5.358 5.592c0 3.088-2.399 5.591-5.358 5.591-2.959 0-5.357-2.503-5.357-5.591M7.332 45.145c0-3.088 2.4-5.592 5.357-5.592 2.96 0 5.358 2.504 5.358 5.592 0 3.088-2.398 5.591-5.358 5.591-2.958 0-5.357-2.503-5.357-5.591M9.808 37.208c0-.95.738-1.721 1.648-1.721.91 0 1.648.77 1.648 1.721 0 .95-.738 1.72-1.648 1.72-.91 0-1.648-.77-1.648-1.72M14.643 38.007c0-.95.738-1.72 1.648-1.72.911 0 1.65.77 1.65 1.72s-.739 1.72-1.65 1.72c-.91 0-1.648-.77-1.648-1.72M17.96 41.102c0-.95.738-1.721 1.648-1.721.91 0 1.648.77 1.648 1.72s-.738 1.72-1.648 1.72c-.91 0-1.648-.77-1.648-1.72M18.797 46.002c0-.95.738-1.72 1.65-1.72.91 0 1.647.77 1.647 1.72s-.737 1.72-1.648 1.72c-.91 0-1.649-.77-1.649-1.72M60.574 1.994h.374l.564.96h.333l-.603-.97c.3-.034.542-.2.542-.59 0-.414-.239-.614-.724-.614h-.794v2.174h.308v-.96zm0-.95h.43c.23 0 .472.052.472.33 0 .332-.267.356-.551.356h-.351v-.687zm2.163.823C62.737.834 61.938 0 60.947 0c-.988 0-1.788.834-1.788 1.867s.8 1.867 1.789 1.867c.99 0 1.789-.834 1.789-1.867zm-.336 0c0 .882-.64 1.575-1.453 1.575-.812 0-1.452-.693-1.452-1.575s.64-1.575 1.452-1.575c.813 0 1.453.693 1.453 1.575z" mask="url(#b)"/>
    </g>
</svg>
