<svg xmlns="http://www.w3.org/2000/svg" width="20" height="20" viewBox="0 0 20 20">
    <g fill="none" fill-rule="evenodd">
        <path fill="#F1F1F1" d="M-882-497H558v2670H-882z"/>
        <g fill="#FFF" fill-rule="nonzero">
            <path d="M12.342 6.98v.048h.005c.02.112.076.22.168.306a.63.63 0 0 0 .53.158h3.332a.631.631 0 0 0 .532-.158.545.545 0 0 0 0-.804.625.625 0 0 0-.429-.167H14.4l2.47-2.32c.013-.01.026-.017.038-.028a.545.545 0 0 0 0-.805.635.635 0 0 0-.857 0c-.013.012-.022.026-.034.038L13.545 5.57V3.662a.544.544 0 0 0-.172-.45.634.634 0 0 0-.858 0 .545.545 0 0 0-.172.45v3.222a.495.495 0 0 0 0 .096zM18.985 16.47l.06-.057-.056.052z"/>
            <path d="M19.256 13.291l-4.382-1.153-.025.024-1.638 1.537-.023.026c-.678.638-2.358-.564-4.618-2.686C6.31 8.917 5.031 7.34 5.71 6.703l.028-.021 1.638-1.538.025-.024-1.229-4.114c-.903-.849-2.366-.849-3.27 0l.03-.029L.45 3.31C-.908 4.583.835 9.815 5.355 14.059c4.52 4.244 10.092 5.88 11.448 4.607l2.455-2.306a2.078 2.078 0 0 0-.002-3.069zm-.817 2.304l-2.453 2.303c-.904.849-5.745-.787-9.813-4.607C2.105 9.47.363 4.926 1.266 4.077L3.72 1.774l-.01.01a1.21 1.21 0 0 1 1.636 0l.827 2.95-1.688 1.584c-.905.85.557 2.943 3.269 5.489s4.94 3.919 5.846 3.069l1.688-1.585 3.141.777a1.039 1.039 0 0 1 0 1.536l.01-.01z"/>
        </g>
    </g>
</svg>
