<svg xmlns="http://www.w3.org/2000/svg" width="15" height="30" viewBox="0 0 15 30">
    <path fill="#000" fill-rule="nonzero" d="M14.75 25.727c0-2.078-1.627-3.757-3.764-3.979V8.752c2.09-.222 3.764-1.946 3.764-3.98 0-2.21-1.905-4.022-4.23-4.022-1.161 0-2.23.442-3.02 1.194A4.364 4.364 0 0 0 4.48.75C2.154.75.25 2.562.25 4.773c0 2.078 1.627 3.757 3.764 3.979v12.996C1.877 21.97.25 23.65.25 25.728c0 2.21 1.905 4.022 4.23 4.022 1.161 0 2.23-.442 3.02-1.194a4.364 4.364 0 0 0 3.02 1.194c2.371-.044 4.23-1.812 4.23-4.023zm-7.575 1.857c-.651.796-1.58 1.282-2.65 1.282-1.812 0-3.299-1.415-3.299-3.139 0-1.724 1.487-3.139 3.3-3.139h.046c.279 0 .465-.176.465-.442V8.31c0-.265-.233-.442-.511-.442-1.813 0-3.3-1.414-3.3-3.138s1.487-3.14 3.3-3.14c1.022 0 1.998.443 2.649 1.283a.43.43 0 0 0 .371.177c.14 0 .28-.044.372-.133.65-.796 1.58-1.282 2.65-1.282 1.812 0 3.299 1.415 3.299 3.139 0 1.724-1.487 3.139-3.3 3.139-.279 0-.464.176-.464.442V22.19c0 .265.185.442.464.442 1.813 0 3.3 1.414 3.3 3.138s-1.487 3.14-3.3 3.14a3.317 3.317 0 0 1-2.649-1.283.43.43 0 0 0-.372-.177c-.139 0-.278 0-.371.133z"/>
</svg>
