<svg xmlns="http://www.w3.org/2000/svg" width="23" height="23" viewBox="0 0 23 23">
    <g fill="#000" fill-rule="nonzero">
        <path d="M11.5 3.833c4.227 0 7.667 3.44 7.667 7.667s-3.44 7.667-7.667 7.667-7.667-3.44-7.667-7.667 3.44-7.667 7.667-7.667zm0-.958A8.624 8.624 0 0 0 2.875 11.5a8.624 8.624 0 0 0 8.625 8.625 8.624 8.624 0 0 0 8.625-8.625A8.624 8.624 0 0 0 11.5 2.875z"/>
        <path d="M11.54 15.745c-1.515 0-2.533-.881-2.533-2.191a.48.48 0 0 1 .48-.48.48.48 0 0 1 .479.48c0 1.143 1.205 1.233 1.574 1.233.37 0 1.576-.09 1.576-1.233 0-.713-.28-.878-1.457-1.459l-.66-.327c-1.156-.57-1.992-.983-1.992-2.319 0-1.319 1.018-2.205 2.533-2.205 1.498 0 2.504.886 2.504 2.205a.48.48 0 0 1-.958 0c0-1.157-1.184-1.247-1.546-1.247-.76 0-1.574.328-1.574 1.247 0 .714.279.879 1.457 1.46l.66.327c1.155.57 1.99.982 1.99 2.318.001 1.31-1.018 2.191-2.533 2.191z"/>
        <path d="M11.5 8.146a.48.48 0 0 1-.48-.48v-.958a.48.48 0 0 1 .96 0v.959a.48.48 0 0 1-.48.479zM11.5 16.77a.48.48 0 0 1-.48-.478v-.959a.48.48 0 0 1 .96 0v.959a.48.48 0 0 1-.48.479z"/>
        <path d="M11.5.958c5.811 0 10.542 4.73 10.542 10.542 0 5.813-4.73 10.542-10.542 10.542C5.688 22.042.958 17.313.958 11.5.958 5.688 5.688.958 11.5.958zm0-.958C5.15 0 0 5.15 0 11.5S5.15 23 11.5 23 23 17.85 23 11.5 17.85 0 11.5 0z"/>
    </g>
</svg>
