<?xml version="1.0" encoding="UTF-8"?>
<svg width="23px" height="23px" viewBox="0 0 23 23" version="1.1" xmlns="http://www.w3.org/2000/svg" xmlns:xlink="http://www.w3.org/1999/xlink">
    <!-- Generator: Sketch 57.1 (83088) - https://sketch.com -->
    <title>VideoIcon</title>
    <desc>Created with Sketch.</desc>
    <g id="Page-1" stroke="none" stroke-width="1" fill="none" fill-rule="evenodd">
        <g id="AvailablePuppies" transform="translate(-497.000000, -704.000000)" fill="#FFFFFF" fill-rule="nonzero">
            <g id="VideoIcon" transform="translate(497.000000, 704.000000)">
                <path d="M22.9973851,11.5000667 C23.0239969,14.4722298 22.8474621,17.44274 22.4690125,20.3908685 C22.3324514,21.3816619 21.5783222,22.1748582 20.5950511,22.3619093 C17.590787,22.8438614 14.5490814,23.0535506 11.507043,22.9884187 C8.46500454,23.0535506 5.42329894,22.8438614 2.41903478,22.3619093 C1.43576369,22.1748582 0.681634512,21.3816619 0.5450734,20.3908685 C0.161913412,17.4430623 -0.0193290813,14.4725508 0.00261089656,11.5000667 C-0.0239790072,8.52790412 0.152555722,5.55739548 0.530983465,2.60926492 C0.667544576,1.61847153 1.42167375,0.82527517 2.40494484,0.638224149 C5.41152831,0.15584855 8.45561101,-0.0538419663 11.5,0.0117147595 C14.5420364,-0.0534171847 17.583742,0.15627201 20.5880062,0.638224149 C21.5712773,0.82527517 22.3254064,1.61847153 22.4619675,2.60926492 C22.8427504,5.55723436 23.021639,8.52774366 22.9973851,11.5000667 L22.9973851,11.5000667 Z M15.6582453,10.9245118 L9.15060466,7.10847725 C8.9208572,6.97331405 8.62900994,6.96379746 8.38937245,7.08365491 C8.14973496,7.20351236 8.00045425,7.43366418 8,7.68396541 L8,15.3160346 C8.00045425,15.5663358 8.14973496,15.7964876 8.38937245,15.9163451 C8.62900994,16.0362025 8.9208572,16.0266859 9.15060466,15.8915227 L15.6582453,12.0754882 C15.871311,11.9492895 16,11.7325873 16,11.5 C16,11.2674127 15.871311,11.0507105 15.6582453,10.9245118 Z" id="Shape"></path>
            </g>
        </g>
    </g>
</svg>