<svg xmlns="http://www.w3.org/2000/svg" xmlns:xlink="http://www.w3.org/1999/xlink" width="142" height="33" viewBox="0 0 142 33">
    <defs>
        <path id="a" d="M.178.063h16.714V27.72H.178z"/>
        <path id="c" d="M.008.054H14.22V33H.008z"/>
        <path id="e" d="M0 33h143V0H0z"/>
    </defs>
    <g fill="none" fill-rule="evenodd">
        <path fill="#FFF" d="M35.2 6.148h5.761c2.508 0 4.44 1.432 4.44 4.951 0 3.805-1.288 6.056-4.61 6.056H35.2V6.148zm-4 25.532h4V21.492h5.32c6.236 0 8.88-4.133 8.88-10.597 0-6.71-3.152-9.575-7.897-9.575H31.2v30.36z"/>
        <g transform="translate(49.4 5.28)">
            <mask id="b" fill="#fff">
                <use xlink:href="#a"/>
            </mask>
            <path fill="#FFF" d="M16.892 12.17C16.892 5.247 14.733.064 9.14.064 3.383.063.178 5.671.178 13.53c0 7.987 2.518 14.19 8.962 14.19 3.598 0 5.888-2.804 6.672-4.418v-5.353l-.13.085c-1.145 3.059-3.14 5.693-6.28 5.693-3.926 0-5.757-3.527-5.757-8.412h13.247V12.17zm-13.247-.849c.294-4.546 2.257-6.755 5.364-6.755 3.402 0 5.2 2.337 5.2 6.755H3.646z" mask="url(#b)"/>
        </g>
        <g transform="translate(66.3)">
            <mask id="d" fill="#fff">
                <use xlink:href="#c"/>
            </mask>
            <path fill="#FFF" d="M14.22 7.036H7.456L7.66.054H6.191C5.405 4.026 3.321 7.33.008 8.082v3.135H3.39v14.425C3.39 29.655 4.688 33 9.164 33c1.81 0 4.134-1.505 4.885-2.383v-4.139c-.751 1.254-1.982 2.341-3.826 2.341-2.563 0-3.007-1.714-3.007-4.348V11.217h7.004v-4.18z" mask="url(#d)"/>
        </g>
        <mask id="f" fill="#fff">
            <use xlink:href="#e"/>
        </mask>
        <path fill="#FFF" d="M80.6 31.68h3.9V0h-3.9zM100.1 12.782c0-4.988-2.224-7.502-6.26-7.502-3.241 0-5.053 1.581-6.991 3.812v4.826c1.78-2.555 3.591-4.096 6.355-4.096 1.62 0 3.464.77 3.464 3.366 0 2.352-1.271 2.838-2.86 3.487-3.75 1.622-8.008 2.028-8.008 8.476 0 4.055 2.002 6.529 5.148 6.529 2.415 0 4.513-1.947 5.53-4.664h.063v4.096h3.559v-18.33zm-3.56 8.516c0 3.245-1.715 6.814-4.448 6.814-1.303 0-2.733-1.096-2.733-3.164 0-4.46 4.259-4.46 7.119-6.448h.063v2.798zM104 31.68h3.704V18.003c0-2.818 1.058-8.081 5.325-8.081 3.67 0 4.167 3.357 4.167 5.843V31.68h3.704V13.486c0-3.979-1.62-8.206-6.383-8.206-3.208 0-5.358 1.7-6.945 5.802h-.066V5.86H104v25.82zM136.82 32.414h3.58V0h-3.782v9.59h-.067c-1.35-2.764-3.883-3.853-5.842-3.853-4.93 0-8.509 3.811-8.509 13.82C122.2 26.09 123.855 33 130 33c3.41 0 5.876-2.806 6.753-6.491h.068v5.905zm-.067-13.82c0 4.858-1.114 10.218-5.976 10.218-3.985 0-4.998-4.565-4.998-8.795 0-4.899 1.216-9.59 5.538-9.59 3.816 0 5.436 3.644 5.436 8.167zM15.685 22.142c0-1.62-.604-3.097-1.594-4.213a9.684 9.684 0 0 1-.513-.514 6.12 6.12 0 0 0-4.093-1.568c-3.424 0-6.2 2.818-6.2 6.295l-.005 6.294 6.205.001c3.424 0 6.2-2.818 6.2-6.295m.124-7.07c.177.164.348.336.513.514a6.122 6.122 0 0 0 4.093 1.567c3.424 0 6.2-2.818 6.2-6.295l.005-6.293-6.205-.001c-3.424 0-6.2 2.818-6.2 6.294 0 1.62.604 3.098 1.594 4.214m3.058 7.05a9.615 9.615 0 0 1-1.582 5.306c.94.581 2.042.916 3.222.916l6.198.006.001-6.3c0-1.212-.336-2.342-.92-3.301a9.272 9.272 0 0 1-5.34 1.686 9.36 9.36 0 0 1-1.755-.166c.116.6.176 1.22.176 1.854M3.194 10.687v.264c0 .273.017.54.05.804.83-.063 1.192-.49 1.192-.49s.39.515 1.06.515c.668 0 1.156-.515 1.156-.515s.407.515 1.06.515c.651 0 1.125-.546 1.125-.546s.457.596 1.173.596c.636 0 .965-.458 1.03-.56a10.548 10.548 0 0 1 .01-.974c-.035.047-.364.46-1.04.46-.716 0-1.173-.48-1.173-.48s-.474.43-1.126.43a1.614 1.614 0 0 1-1.059-.397s-.488.398-1.157.398c-.668 0-1.059-.398-1.059-.398s-.377.34-1.242.378m0-2.116v1.072c.865-.05 1.242-.493 1.242-.493s.39.514 1.06.514c.668 0 1.156-.514 1.156-.514s.407.514 1.06.514c.651 0 1.125-.546 1.125-.546s.457.596 1.173.596 1.043-.58 1.043-.58.04.053.114.125c.049-.291.11-.578.185-.86-.187-.108-.3-.222-.3-.222s-.326.464-1.042.464-1.173-.48-1.173-.48-.474.43-1.126.43c-.652 0-1.059-.398-1.059-.398s-.488.398-1.157.398c-.668 0-1.059-.398-1.059-.398s-.377.34-1.241.378m9.42-3a6.103 6.103 0 0 0-3.221-.915L3.195 4.65v2.878c.864-.05 1.241-.493 1.241-.493s.39.514 1.06.514c.668 0 1.156-.514 1.156-.514s.407.514 1.06.514c.651 0 1.125-.546 1.125-.546s.457.596 1.173.596 1.043-.58 1.043-.58.236.307.594.454c.253-.673.58-1.31.968-1.901M1.806 16.552A9.612 9.612 0 0 1 0 10.92l.002-9.566 9.41.008c2.048 0 3.943.664 5.488 1.791a9.277 9.277 0 0 1 5.545-1.834l9.421.002-.008 9.556a9.615 9.615 0 0 1-1.764 5.57A9.61 9.61 0 0 1 29.9 22.08l-.002 9.565-9.41-.008A9.276 9.276 0 0 1 15 29.846a9.276 9.276 0 0 1-5.546 1.834l-9.42-.002.007-9.555c0-2.079.654-4.003 1.764-5.572" mask="url(#f)"/>
        <path fill="#FFF" d="M19.5 7.92c0-1.458 1.164-2.64 2.6-2.64 1.436 0 2.6 1.182 2.6 2.64 0 1.458-1.164 2.64-2.6 2.64-1.436 0-2.6-1.182-2.6-2.64M3.9 25.08c0-1.458 1.164-2.64 2.6-2.64 1.436 0 2.6 1.182 2.6 2.64 0 1.458-1.164 2.64-2.6 2.64-1.436 0-2.6-1.182-2.6-2.64M5.2 20.46c0-.364.291-.66.65-.66.359 0 .65.296.65.66 0 .365-.291.66-.65.66a.655.655 0 0 1-.65-.66M7.8 21.78c0-.364.29-.66.65-.66.359 0 .65.296.65.66 0 .365-.291.66-.65.66a.655.655 0 0 1-.65-.66M9.1 23.1c0-.364.291-.66.65-.66.359 0 .65.296.65.66 0 .365-.291.66-.65.66a.655.655 0 0 1-.65-.66M10.4 25.74c0-.364.291-.66.65-.66.36 0 .65.296.65.66 0 .364-.29.66-.65.66a.655.655 0 0 1-.65-.66M140.914 31.065h.136l.205.34h.12l-.218-.344c.109-.012.197-.07.197-.208 0-.147-.087-.217-.263-.217h-.289v.768h.112v-.34zm0-.336h.157c.083 0 .171.019.171.117 0 .117-.097.126-.2.126h-.128v-.243zm.786.29c0-.364-.29-.659-.65-.659-.36 0-.65.295-.65.66 0 .365.29.66.65.66.36 0 .65-.295.65-.66zm-.122 0c0 .313-.232.558-.528.558-.295 0-.528-.245-.528-.557 0-.312.233-.557.528-.557.296 0 .528.245.528.557z" mask="url(#f)"/>
    </g>
</svg>
