<svg xmlns="http://www.w3.org/2000/svg" width="18" height="23" viewBox="0 0 18 23">
    <path fill="#000" fill-rule="nonzero" d="M9.821 20.951a36.014 36.014 0 0 0 2.835-3.063c2.083-2.54 3.494-5.047 3.93-7.355.092-.49.14-.969.14-1.433 0-4.45-3.535-8.1-7.849-8.1S1.029 4.65 1.029 9.1c0 .464.047.942.14 1.433.435 2.308 1.846 4.815 3.929 7.355a36.014 36.014 0 0 0 3.767 3.93c.305-.25.618-.54.956-.867zM17.754 9.1a8.7 8.7 0 0 1-.157 1.613c-.471 2.501-1.957 5.14-4.136 7.799a37.013 37.013 0 0 1-3.877 4.043c-.176.157-.302.266-.371.324a.525.525 0 0 1-.672 0 33.731 33.731 0 0 1-1.333-1.218 37.013 37.013 0 0 1-2.915-3.15C2.114 15.855.628 13.215.157 10.714A8.7 8.7 0 0 1 0 9.1C0 4.111 3.98 0 8.877 0s8.877 4.111 8.877 9.1zm-8.877 3.857c-2.457 0-4.45-1.937-4.45-4.327 0-2.389 1.993-4.326 4.45-4.326 2.458 0 4.45 1.937 4.45 4.326 0 2.39-1.992 4.327-4.45 4.327zm0-1c1.89 0 3.421-1.49 3.421-3.327s-1.532-3.326-3.421-3.326c-1.89 0-3.421 1.49-3.421 3.326 0 1.837 1.532 3.327 3.421 3.327z"/>
</svg>
